<svg width="955" height="295" viewBox="0 0 955 295" fill="none" xmlns="http://www.w3.org/2000/svg">
<mask id="mask0_13_95" style="mask-type:alpha" maskUnits="userSpaceOnUse" x="8" y="20" width="186" height="186">
<circle cx="100.569" cy="113" r="92.5686" fill="url(#paint0_linear_13_95)"/>
</mask>
<g mask="url(#mask0_13_95)">
<circle cx="100.569" cy="113" r="92.5686" fill="url(#paint1_linear_13_95)"/>
<g opacity="0.2" filter="url(#filter0_f_13_95)">
<circle cx="100.569" cy="113" r="52.1579" fill="white"/>
</g>
<g opacity="0.4" filter="url(#filter1_f_13_95)">
<circle cx="101.038" cy="113.47" r="17.8559" fill="white"/>
</g>
<g style="mix-blend-mode:soft-light" opacity="0.3">
<ellipse cx="101.039" cy="88.0958" rx="111.834" ry="94.9181" fill="white"/>
</g>
</g>
<rect x="4" y="16.4314" width="193.137" height="193.137" rx="96.5686" stroke="white" stroke-width="8"/>
<path d="M320.615 190.205C311.927 190.205 304.449 189.065 298.182 186.786C291.915 184.365 285.861 180.448 280.022 175.036V187H253.956V29.1121H280.876V94.4892C285.719 90.0738 291.559 86.7978 298.396 84.6613C305.375 82.3824 312.781 81.2429 320.615 81.2429C331.013 81.2429 340.271 83.5931 348.39 88.2934C356.651 92.8513 363.061 99.2608 367.618 107.522C372.319 115.783 374.669 125.255 374.669 135.937C374.669 146.762 372.319 156.306 367.618 164.567C363.061 172.685 356.651 179.024 348.39 183.582C340.271 187.997 331.013 190.205 320.615 190.205ZM313.992 169.053C323.678 169.053 331.654 165.991 337.921 159.866C344.188 153.742 347.322 145.765 347.322 135.937C347.322 126.11 344.188 118.062 337.921 111.795C331.654 105.528 323.678 102.394 313.992 102.394C306.301 102.394 299.393 104.531 293.268 108.804C287.286 112.934 283.155 118.489 280.876 125.469V146.193C283.298 153.172 287.499 158.727 293.482 162.857C299.464 166.988 306.301 169.053 313.992 169.053ZM446.38 190.205C434.416 190.205 423.876 188.068 414.76 183.795C405.787 179.38 398.808 173.113 393.822 164.994C388.837 156.733 386.345 146.976 386.345 135.724C386.345 124.756 388.766 115.213 393.609 107.095C398.594 98.8335 405.644 92.4952 414.76 88.0797C423.876 83.5218 434.416 81.2429 446.38 81.2429C458.345 81.2429 468.814 83.5218 477.787 88.0797C486.903 92.4952 493.953 98.8335 498.938 107.095C503.924 115.213 506.416 124.756 506.416 135.724C506.416 146.976 503.924 156.733 498.938 164.994C493.953 173.113 486.903 179.38 477.787 183.795C468.814 188.068 458.345 190.205 446.38 190.205ZM446.38 169.053C456.208 169.053 464.042 165.991 469.882 159.866C475.722 153.599 478.642 145.552 478.642 135.724C478.642 125.326 475.722 117.207 469.882 111.368C464.185 105.385 456.351 102.394 446.38 102.394C436.41 102.394 428.505 105.385 422.665 111.368C416.968 117.207 414.119 125.326 414.119 135.724C414.119 145.552 417.039 153.599 422.879 159.866C428.719 165.991 436.552 169.053 446.38 169.053ZM578.034 190.205C566.07 190.205 555.53 188.068 546.414 183.795C537.441 179.38 530.461 173.113 525.476 164.994C520.491 156.733 517.998 146.976 517.998 135.724C517.998 124.756 520.42 115.213 525.263 107.095C530.248 98.8335 537.298 92.4952 546.414 88.0797C555.53 83.5218 566.07 81.2429 578.034 81.2429C589.999 81.2429 600.468 83.5218 609.441 88.0797C618.557 92.4952 625.607 98.8335 630.592 107.095C635.578 115.213 638.07 124.756 638.07 135.724C638.07 146.976 635.578 156.733 630.592 164.994C625.607 173.113 618.557 179.38 609.441 183.795C600.468 188.068 589.999 190.205 578.034 190.205ZM578.034 169.053C587.862 169.053 595.696 165.991 601.536 159.866C607.376 153.599 610.296 145.552 610.296 135.724C610.296 125.326 607.376 117.207 601.536 111.368C595.839 105.385 588.005 102.394 578.034 102.394C568.064 102.394 560.159 105.385 554.319 111.368C548.622 117.207 545.773 125.326 545.773 135.724C545.773 145.552 548.693 153.599 554.533 159.866C560.373 165.991 568.206 169.053 578.034 169.053ZM697.455 190.205C686.203 190.205 677.657 187.071 671.817 180.804C665.977 174.537 663.057 165.706 663.057 154.311V104.958H647.674V84.4477H663.057V53.682H689.977V84.4477H714.547V104.958H689.977V150.893C689.977 157.445 691.188 162.145 693.609 164.994C696.031 167.7 700.446 169.053 706.856 169.053C711.271 169.053 715.615 168.056 719.888 166.062V186.573C713.764 188.994 706.286 190.205 697.455 190.205ZM739.052 29.1121H765.972V97.4804C775.657 86.6554 788.191 81.2429 803.574 81.2429C817.39 81.2429 827.717 85.0174 834.554 92.5664C841.391 99.9729 844.809 109.872 844.809 122.264V187H817.889V124.828C817.889 109.872 810.91 102.394 796.951 102.394C790.827 102.394 785.058 103.89 779.645 106.881C774.233 109.73 769.675 114.074 765.972 119.914V187H739.052V29.1121Z" fill="white"/>
<path d="M881.073 83.336L875.817 89.528C876.921 90.488 878.337 91.352 880.065 92.12C881.745 92.936 883.617 93.344 885.681 93.344C888.225 93.344 890.529 92.864 892.593 91.904C894.705 90.944 896.433 89.552 897.777 87.728C899.169 85.904 900.081 83.72 900.513 81.176L909.801 26.6H901.161L892.089 79.592C891.849 81.464 891.129 82.952 889.929 84.056C888.777 85.16 887.529 85.76 886.185 85.856C885.081 85.904 884.097 85.664 883.233 85.136C882.369 84.656 881.649 84.056 881.073 83.336ZM921.075 60.8L914.595 65.12C915.459 67.472 916.707 69.632 918.339 71.6C919.971 73.568 921.939 75.152 924.243 76.352C926.595 77.504 929.211 78.08 932.091 78.08C935.259 78.08 938.211 77.384 940.947 75.992C943.683 74.6 945.915 72.704 947.643 70.304C949.371 67.904 950.307 65.144 950.451 62.024C950.547 59.384 950.067 57.176 949.011 55.4C948.003 53.576 946.659 52.064 944.979 50.864C943.347 49.664 941.571 48.704 939.651 47.984C938.259 47.408 936.963 46.832 935.763 46.256C934.611 45.632 933.603 44.984 932.739 44.312C931.875 43.592 931.203 42.824 930.723 42.008C930.291 41.144 930.099 40.232 930.147 39.272C930.195 38.12 930.507 37.088 931.083 36.176C931.659 35.264 932.475 34.544 933.531 34.016C934.635 33.488 935.955 33.224 937.491 33.224C939.315 33.224 940.827 33.56 942.027 34.232C943.275 34.904 944.283 35.792 945.051 36.896C945.867 37.952 946.563 39.08 947.139 40.28L954.123 36.608C953.355 34.688 952.275 32.912 950.883 31.28C949.491 29.6 947.763 28.256 945.699 27.248C943.635 26.24 941.187 25.736 938.355 25.736C935.187 25.688 932.355 26.288 929.859 27.536C927.363 28.736 925.371 30.416 923.883 32.576C922.395 34.688 921.579 37.088 921.435 39.776C921.387 41.792 921.699 43.568 922.371 45.104C923.091 46.592 924.027 47.888 925.179 48.992C926.331 50.096 927.555 51.032 928.851 51.8C930.147 52.568 931.395 53.216 932.595 53.744C934.323 54.512 935.883 55.256 937.275 55.976C938.667 56.696 939.747 57.56 940.515 58.568C941.331 59.576 941.715 60.92 941.667 62.6C941.619 63.944 941.211 65.216 940.443 66.416C939.675 67.616 938.595 68.576 937.203 69.296C935.859 70.016 934.299 70.376 932.523 70.376C930.603 70.376 928.947 69.968 927.555 69.152C926.163 68.336 924.939 67.208 923.883 65.768C922.875 64.328 921.939 62.672 921.075 60.8Z" fill="white"/>
<path d="M255.156 253.938H273.783L272.625 248.904H256.263L255.156 253.938ZM264.369 237.727L269.957 250.817L270.108 252.277L274.891 263H281.586L264.369 225.796L247.151 263H253.847L258.73 251.975L258.831 250.666L264.369 237.727ZM289.838 253.938V239.842H284.25V254.542C284.25 257.294 284.938 259.476 286.314 261.087C287.723 262.698 289.72 263.503 292.305 263.503C293.916 263.503 295.292 263.168 296.433 262.497C297.608 261.792 298.564 260.768 299.302 259.426V263H304.74V239.842H299.302V253.938C299.302 254.978 299.084 255.901 298.648 256.707C298.212 257.479 297.608 258.083 296.836 258.519C296.064 258.922 295.157 259.123 294.117 259.123C292.674 259.123 291.6 258.67 290.895 257.764C290.19 256.858 289.838 255.583 289.838 253.938ZM329.102 223.732V263H334.59V223.732H329.102ZM309.921 251.421C309.921 253.938 310.441 256.103 311.482 257.915C312.522 259.728 313.898 261.12 315.61 262.094C317.355 263.034 319.218 263.503 321.198 263.503C323.145 263.503 324.84 263.017 326.283 262.043C327.76 261.07 328.918 259.677 329.757 257.865C330.629 256.053 331.066 253.904 331.066 251.421C331.066 248.904 330.629 246.756 329.757 244.977C328.918 243.164 327.76 241.772 326.283 240.798C324.84 239.825 323.145 239.338 321.198 239.338C319.218 239.338 317.355 239.825 315.61 240.798C313.898 241.738 312.522 243.114 311.482 244.926C310.441 246.705 309.921 248.87 309.921 251.421ZM315.56 251.421C315.56 249.877 315.879 248.551 316.516 247.444C317.154 246.336 317.993 245.497 319.033 244.926C320.107 244.356 321.265 244.071 322.507 244.071C323.548 244.071 324.571 244.356 325.578 244.926C326.619 245.497 327.458 246.336 328.095 247.444C328.767 248.518 329.102 249.843 329.102 251.421C329.102 252.998 328.767 254.341 328.095 255.448C327.458 256.522 326.619 257.345 325.578 257.915C324.571 258.486 323.548 258.771 322.507 258.771C321.265 258.771 320.107 258.486 319.033 257.915C317.993 257.345 317.154 256.506 316.516 255.398C315.879 254.29 315.56 252.965 315.56 251.421ZM341.128 230.629C341.128 231.535 341.463 232.324 342.135 232.995C342.84 233.633 343.645 233.951 344.551 233.951C345.525 233.951 346.33 233.633 346.968 232.995C347.639 232.324 347.975 231.535 347.975 230.629C347.975 229.689 347.639 228.9 346.968 228.263C346.33 227.625 345.525 227.306 344.551 227.306C343.645 227.306 342.84 227.625 342.135 228.263C341.463 228.9 341.128 229.689 341.128 230.629ZM341.883 239.842V263H347.22V239.842H341.883ZM352.94 251.421C352.94 253.77 353.477 255.868 354.551 257.714C355.658 259.526 357.152 260.953 359.032 261.993C360.911 263 363.042 263.503 365.425 263.503C367.808 263.503 369.923 263 371.769 261.993C373.648 260.953 375.142 259.526 376.249 257.714C377.357 255.868 377.911 253.77 377.911 251.421C377.911 249.038 377.357 246.94 376.249 245.128C375.142 243.315 373.648 241.906 371.769 240.899C369.923 239.858 367.808 239.338 365.425 239.338C363.042 239.338 360.911 239.858 359.032 240.899C357.152 241.906 355.658 243.315 354.551 245.128C353.477 246.94 352.94 249.038 352.94 251.421ZM358.528 251.421C358.528 249.978 358.83 248.702 359.434 247.595C360.038 246.487 360.861 245.631 361.901 245.027C362.942 244.423 364.116 244.121 365.425 244.121C366.701 244.121 367.859 244.423 368.899 245.027C369.973 245.631 370.812 246.487 371.416 247.595C372.02 248.702 372.322 249.978 372.322 251.421C372.322 252.864 372.02 254.139 371.416 255.247C370.812 256.321 369.973 257.177 368.899 257.815C367.859 258.419 366.701 258.721 365.425 258.721C364.116 258.721 362.942 258.419 361.901 257.815C360.861 257.177 360.038 256.321 359.434 255.247C358.83 254.139 358.528 252.864 358.528 251.421ZM403.55 239.842H398.163V263H403.55V239.842ZM410.447 245.631L413.065 241.05C412.562 240.412 411.941 239.976 411.202 239.741C410.464 239.472 409.675 239.338 408.836 239.338C407.661 239.338 406.52 239.758 405.413 240.597C404.339 241.436 403.449 242.577 402.744 244.02C402.073 245.43 401.738 247.058 401.738 248.904L403.55 249.961C403.55 248.853 403.667 247.897 403.902 247.091C404.171 246.252 404.59 245.598 405.161 245.128C405.732 244.658 406.47 244.423 407.376 244.423C408.047 244.423 408.601 244.524 409.037 244.725C409.474 244.926 409.944 245.229 410.447 245.631ZM426.128 263.503C428.813 263.503 431.112 262.983 433.025 261.943C434.938 260.902 436.499 259.342 437.707 257.261L433.025 255.348C432.286 256.59 431.364 257.512 430.256 258.117C429.148 258.721 427.856 259.023 426.379 259.023C424.97 259.023 423.762 258.721 422.755 258.117C421.781 257.512 421.043 256.64 420.54 255.499C420.036 254.324 419.784 252.898 419.784 251.219C419.818 249.541 420.086 248.132 420.59 246.991C421.093 245.849 421.832 244.977 422.805 244.373C423.778 243.769 424.953 243.466 426.329 243.466C427.47 243.466 428.46 243.718 429.299 244.222C430.172 244.725 430.843 245.43 431.313 246.336C431.817 247.242 432.068 248.316 432.068 249.558C432.068 249.793 432.001 250.095 431.867 250.464C431.766 250.8 431.666 251.068 431.565 251.27L433.226 248.954H417.519V252.679H437.858C437.891 252.545 437.908 252.327 437.908 252.025C437.942 251.723 437.959 251.438 437.959 251.169C437.959 248.685 437.489 246.571 436.549 244.826C435.643 243.047 434.334 241.688 432.622 240.748C430.91 239.808 428.83 239.338 426.379 239.338C423.929 239.338 421.798 239.842 419.986 240.849C418.173 241.822 416.764 243.215 415.757 245.027C414.783 246.84 414.297 248.971 414.297 251.421C414.297 253.837 414.783 255.952 415.757 257.764C416.73 259.577 418.106 260.986 419.885 261.993C421.697 263 423.778 263.503 426.128 263.503ZM446.773 251.421C446.773 249.978 447.092 248.702 447.73 247.595C448.367 246.487 449.223 245.614 450.297 244.977C451.405 244.339 452.63 244.02 453.972 244.02C455.046 244.02 456.087 244.188 457.094 244.524C458.101 244.859 458.99 245.329 459.762 245.933C460.567 246.504 461.155 247.175 461.524 247.947V241.956C460.718 241.151 459.628 240.513 458.252 240.043C456.876 239.573 455.365 239.338 453.721 239.338C451.338 239.338 449.19 239.858 447.277 240.899C445.397 241.906 443.904 243.315 442.796 245.128C441.722 246.94 441.185 249.038 441.185 251.421C441.185 253.77 441.722 255.868 442.796 257.714C443.904 259.526 445.397 260.953 447.277 261.993C449.19 263 451.338 263.503 453.721 263.503C455.365 263.503 456.876 263.269 458.252 262.799C459.628 262.329 460.718 261.691 461.524 260.886V254.895C461.155 255.633 460.584 256.304 459.812 256.908C459.04 257.512 458.151 257.982 457.144 258.318C456.137 258.654 455.08 258.821 453.972 258.821C452.63 258.821 451.405 258.503 450.297 257.865C449.223 257.227 448.367 256.371 447.73 255.297C447.092 254.19 446.773 252.898 446.773 251.421ZM465.772 251.421C465.772 253.77 466.309 255.868 467.383 257.714C468.49 259.526 469.984 260.953 471.863 261.993C473.743 263 475.874 263.503 478.257 263.503C480.64 263.503 482.755 263 484.601 261.993C486.48 260.953 487.974 259.526 489.081 257.714C490.189 255.868 490.743 253.77 490.743 251.421C490.743 249.038 490.189 246.94 489.081 245.128C487.974 243.315 486.48 241.906 484.601 240.899C482.755 239.858 480.64 239.338 478.257 239.338C475.874 239.338 473.743 239.858 471.863 240.899C469.984 241.906 468.49 243.315 467.383 245.128C466.309 246.94 465.772 249.038 465.772 251.421ZM471.36 251.421C471.36 249.978 471.662 248.702 472.266 247.595C472.87 246.487 473.693 245.631 474.733 245.027C475.774 244.423 476.948 244.121 478.257 244.121C479.533 244.121 480.69 244.423 481.731 245.027C482.805 245.631 483.644 246.487 484.248 247.595C484.852 248.702 485.154 249.978 485.154 251.421C485.154 252.864 484.852 254.139 484.248 255.247C483.644 256.321 482.805 257.177 481.731 257.815C480.69 258.419 479.533 258.721 478.257 258.721C476.948 258.721 475.774 258.419 474.733 257.815C473.693 257.177 472.87 256.321 472.266 255.247C471.662 254.139 471.36 252.864 471.36 251.421ZM501.288 239.842H495.902V263H501.288V239.842ZM508.186 245.631L510.803 241.05C510.3 240.412 509.679 239.976 508.941 239.741C508.202 239.472 507.414 239.338 506.575 239.338C505.4 239.338 504.259 239.758 503.151 240.597C502.077 241.436 501.188 242.577 500.483 244.02C499.812 245.43 499.476 247.058 499.476 248.904L501.288 249.961C501.288 248.853 501.406 247.897 501.641 247.091C501.909 246.252 502.329 245.598 502.899 245.128C503.47 244.658 504.208 244.423 505.115 244.423C505.786 244.423 506.34 244.524 506.776 244.725C507.212 244.926 507.682 245.229 508.186 245.631ZM531.954 223.732V263H537.441V223.732H531.954ZM512.773 251.421C512.773 253.938 513.293 256.103 514.333 257.915C515.374 259.728 516.75 261.12 518.462 262.094C520.207 263.034 522.07 263.503 524.05 263.503C525.997 263.503 527.691 263.017 529.135 262.043C530.611 261.07 531.769 259.677 532.608 257.865C533.481 256.053 533.917 253.904 533.917 251.421C533.917 248.904 533.481 246.756 532.608 244.977C531.769 243.164 530.611 241.772 529.135 240.798C527.691 239.825 525.997 239.338 524.05 239.338C522.07 239.338 520.207 239.825 518.462 240.798C516.75 241.738 515.374 243.114 514.333 244.926C513.293 246.705 512.773 248.87 512.773 251.421ZM518.411 251.421C518.411 249.877 518.73 248.551 519.368 247.444C520.006 246.336 520.845 245.497 521.885 244.926C522.959 244.356 524.117 244.071 525.359 244.071C526.399 244.071 527.423 244.356 528.43 244.926C529.47 245.497 530.309 246.336 530.947 247.444C531.618 248.518 531.954 249.843 531.954 251.421C531.954 252.998 531.618 254.341 530.947 255.448C530.309 256.522 529.47 257.345 528.43 257.915C527.423 258.486 526.399 258.771 525.359 258.771C524.117 258.771 522.959 258.486 521.885 257.915C520.845 257.345 520.006 256.506 519.368 255.398C518.73 254.29 518.411 252.965 518.411 251.421ZM543.979 230.629C543.979 231.535 544.315 232.324 544.986 232.995C545.691 233.633 546.497 233.951 547.403 233.951C548.376 233.951 549.182 233.633 549.819 232.995C550.491 232.324 550.826 231.535 550.826 230.629C550.826 229.689 550.491 228.9 549.819 228.263C549.182 227.625 548.376 227.306 547.403 227.306C546.497 227.306 545.691 227.625 544.986 228.263C544.315 228.9 543.979 229.689 543.979 230.629ZM544.735 239.842V263H550.071V239.842H544.735ZM572.455 248.904V263H578.044V248.3C578.044 245.514 577.356 243.332 575.98 241.755C574.603 240.144 572.606 239.338 569.989 239.338C568.378 239.338 566.985 239.674 565.81 240.345C564.669 241.016 563.729 242.04 562.991 243.416V239.842H557.554V263H562.991V248.904C562.991 247.863 563.209 246.957 563.645 246.185C564.082 245.38 564.686 244.775 565.458 244.373C566.23 243.936 567.119 243.718 568.126 243.718C569.603 243.718 570.693 244.154 571.398 245.027C572.103 245.9 572.455 247.192 572.455 248.904ZM583.678 264.561C583.745 266.574 584.249 268.353 585.189 269.897C586.162 271.441 587.538 272.633 589.317 273.472C591.096 274.344 593.244 274.781 595.761 274.781C597.875 274.781 599.839 274.327 601.651 273.421C603.463 272.549 604.923 271.206 606.031 269.394C607.172 267.581 607.743 265.282 607.743 262.497V239.842H602.406V262.497C602.406 264.242 602.071 265.668 601.399 266.776C600.762 267.883 599.923 268.706 598.882 269.243C597.842 269.78 596.751 270.048 595.61 270.048C594.334 270.048 593.21 269.813 592.237 269.343C591.263 268.873 590.491 268.219 589.921 267.38C589.384 266.541 589.099 265.601 589.065 264.561H583.678ZM583.225 251.32C583.225 253.837 583.745 255.985 584.786 257.764C585.826 259.543 587.202 260.902 588.914 261.842C590.659 262.782 592.522 263.252 594.502 263.252C596.449 263.252 598.144 262.782 599.587 261.842C601.064 260.869 602.222 259.493 603.061 257.714C603.933 255.935 604.37 253.804 604.37 251.32C604.37 248.803 603.933 246.655 603.061 244.876C602.222 243.097 601.064 241.738 599.587 240.798C598.144 239.825 596.449 239.338 594.502 239.338C592.522 239.338 590.659 239.808 588.914 240.748C587.202 241.688 585.826 243.047 584.786 244.826C583.745 246.571 583.225 248.736 583.225 251.32ZM588.864 251.32C588.864 249.743 589.183 248.417 589.82 247.343C590.458 246.269 591.297 245.463 592.337 244.926C593.411 244.356 594.569 244.071 595.811 244.071C596.583 244.071 597.355 244.222 598.127 244.524C598.933 244.826 599.654 245.296 600.292 245.933C600.929 246.537 601.433 247.293 601.802 248.199C602.205 249.071 602.406 250.112 602.406 251.32C602.406 252.864 602.071 254.19 601.399 255.297C600.762 256.371 599.923 257.177 598.882 257.714C597.875 258.251 596.852 258.519 595.811 258.519C594.569 258.519 593.411 258.251 592.337 257.714C591.297 257.143 590.458 256.321 589.82 255.247C589.183 254.173 588.864 252.864 588.864 251.32ZM617.909 257.462L613.479 270.501L617.506 271.609L623.346 259.023L617.909 257.462ZM646.467 255.398L643.296 258.57C643.967 259.442 644.789 260.281 645.762 261.087C646.769 261.859 647.927 262.497 649.236 263C650.579 263.47 652.039 263.705 653.616 263.705C656.167 263.705 658.181 263.05 659.657 261.741C661.168 260.399 661.923 258.637 661.923 256.455C661.923 255.046 661.587 253.904 660.916 253.032C660.278 252.159 659.422 251.421 658.348 250.817C657.274 250.213 656.1 249.659 654.824 249.155C653.885 248.786 653.029 248.434 652.257 248.098C651.518 247.762 650.914 247.393 650.444 246.991C650.008 246.554 649.79 246.068 649.79 245.531C649.79 244.893 650.042 244.406 650.545 244.071C651.049 243.735 651.686 243.567 652.458 243.567C653.599 243.567 654.707 243.852 655.781 244.423C656.855 244.994 657.778 245.732 658.55 246.638L661.571 243.416C660.933 242.644 660.161 241.956 659.255 241.352C658.348 240.748 657.325 240.261 656.184 239.892C655.076 239.523 653.885 239.338 652.609 239.338C651.2 239.338 649.874 239.573 648.632 240.043C647.424 240.479 646.45 241.167 645.712 242.107C645.007 243.047 644.655 244.222 644.655 245.631C644.655 247.007 644.974 248.148 645.611 249.055C646.283 249.961 647.122 250.699 648.129 251.27C649.169 251.807 650.21 252.277 651.25 252.679C652.29 253.049 653.197 253.418 653.969 253.787C654.74 254.123 655.345 254.542 655.781 255.046C656.217 255.515 656.435 256.086 656.435 256.757C656.435 257.529 656.15 258.133 655.58 258.57C655.043 259.006 654.287 259.224 653.314 259.224C652.542 259.224 651.77 259.09 650.998 258.821C650.226 258.519 649.454 258.083 648.682 257.512C647.944 256.908 647.206 256.204 646.467 255.398ZM666.546 230.629C666.546 231.535 666.882 232.324 667.553 232.995C668.258 233.633 669.063 233.951 669.969 233.951C670.943 233.951 671.748 233.633 672.386 232.995C673.057 232.324 673.393 231.535 673.393 230.629C673.393 229.689 673.057 228.9 672.386 228.263C671.748 227.625 670.943 227.306 669.969 227.306C669.063 227.306 668.258 227.625 667.553 228.263C666.882 228.9 666.546 229.689 666.546 230.629ZM667.301 239.842V263H672.638V239.842H667.301ZM713.246 248.3C713.246 246.386 712.978 244.759 712.441 243.416C711.904 242.074 711.082 241.067 709.974 240.395C708.9 239.691 707.541 239.338 705.896 239.338C704.319 239.338 702.909 239.691 701.667 240.395C700.459 241.1 699.452 242.124 698.647 243.466C698.143 242.124 697.321 241.1 696.18 240.395C695.072 239.691 693.663 239.338 691.951 239.338C690.474 239.338 689.182 239.674 688.074 240.345C687 240.983 686.128 241.939 685.456 243.215V239.842H680.12V263H685.456V248.904C685.456 247.796 685.641 246.856 686.01 246.084C686.379 245.312 686.9 244.725 687.571 244.322C688.276 243.92 689.098 243.718 690.038 243.718C691.38 243.718 692.354 244.154 692.958 245.027C693.595 245.866 693.914 247.158 693.914 248.904V263H699.351V248.904C699.351 247.796 699.536 246.856 699.905 246.084C700.308 245.312 700.845 244.725 701.516 244.322C702.221 243.92 703.027 243.718 703.933 243.718C705.275 243.718 706.249 244.154 706.853 245.027C707.49 245.866 707.809 247.158 707.809 248.904V263H713.246V248.3ZM725.475 274.076V239.842H719.987V274.076H725.475ZM744.656 251.421C744.656 248.837 744.136 246.638 743.095 244.826C742.055 243.013 740.679 241.637 738.967 240.698C737.255 239.724 735.393 239.238 733.379 239.238C731.399 239.238 729.67 239.741 728.194 240.748C726.75 241.721 725.626 243.114 724.82 244.926C724.049 246.739 723.663 248.904 723.663 251.421C723.663 253.904 724.049 256.069 724.82 257.915C725.626 259.728 726.75 261.137 728.194 262.144C729.67 263.117 731.399 263.604 733.379 263.604C735.393 263.604 737.255 263.134 738.967 262.194C740.679 261.221 742.055 259.828 743.095 258.016C744.136 256.17 744.656 253.972 744.656 251.421ZM739.018 251.421C739.018 252.965 738.699 254.29 738.061 255.398C737.423 256.472 736.567 257.294 735.493 257.865C734.453 258.402 733.295 258.67 732.02 258.67C730.979 258.67 729.956 258.402 728.949 257.865C727.942 257.294 727.103 256.472 726.431 255.398C725.794 254.324 725.475 252.998 725.475 251.421C725.475 249.843 725.794 248.518 726.431 247.444C727.103 246.37 727.942 245.564 728.949 245.027C729.956 244.457 730.979 244.171 732.02 244.171C733.295 244.171 734.453 244.457 735.493 245.027C736.567 245.564 737.423 246.386 738.061 247.494C738.699 248.568 739.018 249.877 739.018 251.421ZM749.835 223.732V263H755.272V223.732H749.835ZM762.023 230.629C762.023 231.535 762.358 232.324 763.03 232.995C763.735 233.633 764.54 233.951 765.446 233.951C766.42 233.951 767.225 233.633 767.863 232.995C768.534 232.324 768.87 231.535 768.87 230.629C768.87 229.689 768.534 228.9 767.863 228.263C767.225 227.625 766.42 227.306 765.446 227.306C764.54 227.306 763.735 227.625 763.03 228.263C762.358 228.9 762.023 229.689 762.023 230.629ZM762.778 239.842V263H768.115V239.842H762.778ZM773.684 239.842V244.624H786.975V239.842H773.684ZM786.371 229.571L788.938 225.343C788.67 225.007 788.284 224.671 787.78 224.336C787.31 224 786.74 223.715 786.069 223.48C785.397 223.245 784.609 223.127 783.702 223.127C782.091 223.127 780.732 223.446 779.624 224.084C778.517 224.688 777.661 225.594 777.057 226.803C776.486 227.977 776.201 229.471 776.201 231.283V263H781.538V232.34C781.538 231.367 781.638 230.578 781.84 229.974C782.041 229.37 782.309 228.934 782.645 228.665C783.014 228.397 783.451 228.263 783.954 228.263C784.39 228.263 784.81 228.346 785.213 228.514C785.649 228.682 786.035 229.034 786.371 229.571ZM790.931 230.629C790.931 231.535 791.267 232.324 791.938 232.995C792.643 233.633 793.449 233.951 794.355 233.951C795.328 233.951 796.134 233.633 796.771 232.995C797.443 232.324 797.778 231.535 797.778 230.629C797.778 229.689 797.443 228.9 796.771 228.263C796.134 227.625 795.328 227.306 794.355 227.306C793.449 227.306 792.643 227.625 791.938 228.263C791.267 228.9 790.931 229.689 790.931 230.629ZM791.687 239.842V263H797.023V239.842H791.687ZM814.574 263.503C817.259 263.503 819.558 262.983 821.471 261.943C823.385 260.902 824.945 259.342 826.153 257.261L821.471 255.348C820.733 256.59 819.81 257.512 818.703 258.117C817.595 258.721 816.303 259.023 814.826 259.023C813.416 259.023 812.208 258.721 811.201 258.117C810.228 257.512 809.49 256.64 808.986 255.499C808.483 254.324 808.231 252.898 808.231 251.219C808.265 249.541 808.533 248.132 809.036 246.991C809.54 245.849 810.278 244.977 811.252 244.373C812.225 243.769 813.4 243.466 814.776 243.466C815.917 243.466 816.907 243.718 817.746 244.222C818.619 244.725 819.29 245.43 819.76 246.336C820.263 247.242 820.515 248.316 820.515 249.558C820.515 249.793 820.448 250.095 820.314 250.464C820.213 250.8 820.112 251.068 820.011 251.27L821.673 248.954H805.965V252.679H826.305C826.338 252.545 826.355 252.327 826.355 252.025C826.388 251.723 826.405 251.438 826.405 251.169C826.405 248.685 825.935 246.571 824.996 244.826C824.089 243.047 822.78 241.688 821.069 240.748C819.357 239.808 817.276 239.338 814.826 239.338C812.376 239.338 810.245 239.842 808.432 240.849C806.62 241.822 805.21 243.215 804.203 245.027C803.23 246.84 802.743 248.971 802.743 251.421C802.743 253.837 803.23 255.952 804.203 257.764C805.177 259.577 806.553 260.986 808.332 261.993C810.144 263 812.225 263.503 814.574 263.503ZM849.014 223.732V263H854.502V223.732H849.014ZM829.833 251.421C829.833 253.938 830.353 256.103 831.394 257.915C832.434 259.728 833.81 261.12 835.522 262.094C837.267 263.034 839.13 263.503 841.11 263.503C843.057 263.503 844.752 263.017 846.195 262.043C847.672 261.07 848.829 259.677 849.669 257.865C850.541 256.053 850.977 253.904 850.977 251.421C850.977 248.904 850.541 246.756 849.669 244.977C848.829 243.164 847.672 241.772 846.195 240.798C844.752 239.825 843.057 239.338 841.11 239.338C839.13 239.338 837.267 239.825 835.522 240.798C833.81 241.738 832.434 243.114 831.394 244.926C830.353 246.705 829.833 248.87 829.833 251.421ZM835.471 251.421C835.471 249.877 835.79 248.551 836.428 247.444C837.066 246.336 837.905 245.497 838.945 244.926C840.019 244.356 841.177 244.071 842.419 244.071C843.459 244.071 844.483 244.356 845.49 244.926C846.53 245.497 847.369 246.336 848.007 247.444C848.678 248.518 849.014 249.843 849.014 251.421C849.014 252.998 848.678 254.341 848.007 255.448C847.369 256.522 846.53 257.345 845.49 257.915C844.483 258.486 843.459 258.771 842.419 258.771C841.177 258.771 840.019 258.486 838.945 257.915C837.905 257.345 837.066 256.506 836.428 255.398C835.79 254.29 835.471 252.965 835.471 251.421ZM861.996 260.432C861.996 261.372 862.332 262.194 863.003 262.899C863.708 263.604 864.547 263.957 865.52 263.957C866.561 263.957 867.417 263.604 868.088 262.899C868.759 262.194 869.095 261.372 869.095 260.432C869.095 259.459 868.759 258.637 868.088 257.966C867.417 257.261 866.561 256.908 865.52 256.908C864.547 256.908 863.708 257.261 863.003 257.966C862.332 258.637 861.996 259.459 861.996 260.432Z" fill="white"/>
<defs>
<filter id="filter0_f_13_95" x="10.8193" y="23.2507" width="179.499" height="179.499" filterUnits="userSpaceOnUse" color-interpolation-filters="sRGB">
<feFlood flood-opacity="0" result="BackgroundImageFix"/>
<feBlend mode="normal" in="SourceGraphic" in2="BackgroundImageFix" result="shape"/>
<feGaussianBlur stdDeviation="18.7957" result="effect1_foregroundBlur_13_95"/>
</filter>
<filter id="filter1_f_13_95" x="54.9891" y="67.4205" width="92.0988" height="92.0987" filterUnits="userSpaceOnUse" color-interpolation-filters="sRGB">
<feFlood flood-opacity="0" result="BackgroundImageFix"/>
<feBlend mode="normal" in="SourceGraphic" in2="BackgroundImageFix" result="shape"/>
<feGaussianBlur stdDeviation="14.0967" result="effect1_foregroundBlur_13_95"/>
</filter>
<linearGradient id="paint0_linear_13_95" x1="183.269" y1="194.761" x2="22.5666" y2="20.4314" gradientUnits="userSpaceOnUse">
<stop stop-color="#AF1A1A"/>
<stop offset="1" stop-color="#FF0B0B"/>
</linearGradient>
<linearGradient id="paint1_linear_13_95" x1="183.269" y1="194.761" x2="22.5666" y2="20.4314" gradientUnits="userSpaceOnUse">
<stop stop-color="#AF1A1A"/>
<stop offset="1" stop-color="#FF0B0B"/>
</linearGradient>
</defs>
</svg>
