<svg width="1179" height="423" viewBox="0 0 1179 423" fill="none" xmlns="http://www.w3.org/2000/svg">
<mask id="mask0_13_92" style="mask-type:alpha" maskUnits="userSpaceOnUse" x="120" y="94" width="186" height="186">
<circle cx="212.569" cy="187" r="92.5686" fill="url(#paint0_linear_13_92)"/>
</mask>
<g mask="url(#mask0_13_92)">
<circle cx="212.569" cy="187" r="92.5686" fill="url(#paint1_linear_13_92)"/>
<g opacity="0.2" filter="url(#filter0_f_13_92)">
<circle cx="212.569" cy="187" r="52.1579" fill="white"/>
</g>
<g opacity="0.4" filter="url(#filter1_f_13_92)">
<circle cx="213.038" cy="187.47" r="17.8559" fill="white"/>
</g>
<g style="mix-blend-mode:soft-light" opacity="0.3">
<ellipse cx="213.039" cy="162.096" rx="111.834" ry="94.9181" fill="white"/>
</g>
</g>
<path d="M432.615 264.205C423.927 264.205 416.449 263.065 410.182 260.786C403.915 258.365 397.861 254.448 392.022 249.036V261H365.956V103.112H392.876V168.489C397.719 164.074 403.559 160.798 410.396 158.661C417.375 156.382 424.781 155.243 432.615 155.243C443.013 155.243 452.271 157.593 460.39 162.293C468.651 166.851 475.061 173.261 479.618 181.522C484.319 189.783 486.669 199.255 486.669 209.937C486.669 220.762 484.319 230.306 479.618 238.567C475.061 246.685 468.651 253.024 460.39 257.582C452.271 261.997 443.013 264.205 432.615 264.205ZM425.992 243.053C435.678 243.053 443.654 239.991 449.921 233.866C456.188 227.742 459.322 219.765 459.322 209.937C459.322 200.11 456.188 192.062 449.921 185.795C443.654 179.528 435.678 176.394 425.992 176.394C418.301 176.394 411.393 178.531 405.268 182.804C399.286 186.934 395.155 192.489 392.876 199.469V220.193C395.298 227.172 399.499 232.727 405.482 236.857C411.464 240.988 418.301 243.053 425.992 243.053ZM558.38 264.205C546.416 264.205 535.876 262.068 526.76 257.795C517.787 253.38 510.808 247.113 505.822 238.994C500.837 230.733 498.345 220.976 498.345 209.724C498.345 198.756 500.766 189.213 505.609 181.095C510.594 172.833 517.644 166.495 526.76 162.08C535.876 157.522 546.416 155.243 558.38 155.243C570.345 155.243 580.814 157.522 589.787 162.08C598.903 166.495 605.953 172.833 610.938 181.095C615.924 189.213 618.416 198.756 618.416 209.724C618.416 220.976 615.924 230.733 610.938 238.994C605.953 247.113 598.903 253.38 589.787 257.795C580.814 262.068 570.345 264.205 558.38 264.205ZM558.38 243.053C568.208 243.053 576.042 239.991 581.882 233.866C587.722 227.599 590.642 219.552 590.642 209.724C590.642 199.326 587.722 191.207 581.882 185.368C576.185 179.385 568.351 176.394 558.38 176.394C548.41 176.394 540.505 179.385 534.665 185.368C528.968 191.207 526.119 199.326 526.119 209.724C526.119 219.552 529.039 227.599 534.879 233.866C540.719 239.991 548.552 243.053 558.38 243.053ZM690.034 264.205C678.07 264.205 667.53 262.068 658.414 257.795C649.441 253.38 642.461 247.113 637.476 238.994C632.491 230.733 629.998 220.976 629.998 209.724C629.998 198.756 632.42 189.213 637.263 181.095C642.248 172.833 649.298 166.495 658.414 162.08C667.53 157.522 678.07 155.243 690.034 155.243C701.999 155.243 712.468 157.522 721.441 162.08C730.557 166.495 737.607 172.833 742.592 181.095C747.578 189.213 750.07 198.756 750.07 209.724C750.07 220.976 747.578 230.733 742.592 238.994C737.607 247.113 730.557 253.38 721.441 257.795C712.468 262.068 701.999 264.205 690.034 264.205ZM690.034 243.053C699.862 243.053 707.696 239.991 713.536 233.866C719.376 227.599 722.296 219.552 722.296 209.724C722.296 199.326 719.376 191.207 713.536 185.368C707.839 179.385 700.005 176.394 690.034 176.394C680.064 176.394 672.159 179.385 666.319 185.368C660.622 191.207 657.773 199.326 657.773 209.724C657.773 219.552 660.693 227.599 666.533 233.866C672.373 239.991 680.206 243.053 690.034 243.053ZM809.455 264.205C798.203 264.205 789.657 261.071 783.817 254.804C777.977 248.537 775.057 239.706 775.057 228.311V178.958H759.674V158.448H775.057V127.682H801.977V158.448H826.547V178.958H801.977V224.893C801.977 231.445 803.188 236.145 805.609 238.994C808.031 241.7 812.446 243.053 818.856 243.053C823.271 243.053 827.615 242.056 831.888 240.062V260.573C825.764 262.994 818.286 264.205 809.455 264.205ZM851.052 103.112H877.972V171.48C887.657 160.655 900.191 155.243 915.574 155.243C929.39 155.243 939.717 159.017 946.554 166.566C953.391 173.973 956.809 183.872 956.809 196.264V261H929.889V198.828C929.889 183.872 922.91 176.394 908.951 176.394C902.827 176.394 897.058 177.89 891.645 180.881C886.233 183.73 881.675 188.074 877.972 193.914V261H851.052V103.112Z" fill="#3D3D3D"/>
<path d="M993.073 157.336L987.817 163.528C988.921 164.488 990.337 165.352 992.065 166.12C993.745 166.936 995.617 167.344 997.681 167.344C1000.23 167.344 1002.53 166.864 1004.59 165.904C1006.71 164.944 1008.43 163.552 1009.78 161.728C1011.17 159.904 1012.08 157.72 1012.51 155.176L1021.8 100.6H1013.16L1004.09 153.592C1003.85 155.464 1003.13 156.952 1001.93 158.056C1000.78 159.16 999.529 159.76 998.185 159.856C997.081 159.904 996.097 159.664 995.233 159.136C994.369 158.656 993.649 158.056 993.073 157.336ZM1033.07 134.8L1026.59 139.12C1027.46 141.472 1028.71 143.632 1030.34 145.6C1031.97 147.568 1033.94 149.152 1036.24 150.352C1038.59 151.504 1041.21 152.08 1044.09 152.08C1047.26 152.08 1050.21 151.384 1052.95 149.992C1055.68 148.6 1057.91 146.704 1059.64 144.304C1061.37 141.904 1062.31 139.144 1062.45 136.024C1062.55 133.384 1062.07 131.176 1061.01 129.4C1060 127.576 1058.66 126.064 1056.98 124.864C1055.35 123.664 1053.57 122.704 1051.65 121.984C1050.26 121.408 1048.96 120.832 1047.76 120.256C1046.61 119.632 1045.6 118.984 1044.74 118.312C1043.87 117.592 1043.2 116.824 1042.72 116.008C1042.29 115.144 1042.1 114.232 1042.15 113.272C1042.19 112.12 1042.51 111.088 1043.08 110.176C1043.66 109.264 1044.47 108.544 1045.53 108.016C1046.63 107.488 1047.95 107.224 1049.49 107.224C1051.31 107.224 1052.83 107.56 1054.03 108.232C1055.27 108.904 1056.28 109.792 1057.05 110.896C1057.87 111.952 1058.56 113.08 1059.14 114.28L1066.12 110.608C1065.35 108.688 1064.27 106.912 1062.88 105.28C1061.49 103.6 1059.76 102.256 1057.7 101.248C1055.63 100.24 1053.19 99.736 1050.35 99.736C1047.19 99.688 1044.35 100.288 1041.86 101.536C1039.36 102.736 1037.37 104.416 1035.88 106.576C1034.39 108.688 1033.58 111.088 1033.43 113.776C1033.39 115.792 1033.7 117.568 1034.37 119.104C1035.09 120.592 1036.03 121.888 1037.18 122.992C1038.33 124.096 1039.55 125.032 1040.85 125.8C1042.15 126.568 1043.39 127.216 1044.59 127.744C1046.32 128.512 1047.88 129.256 1049.27 129.976C1050.67 130.696 1051.75 131.56 1052.51 132.568C1053.33 133.576 1053.71 134.92 1053.67 136.6C1053.62 137.944 1053.21 139.216 1052.44 140.416C1051.67 141.616 1050.59 142.576 1049.2 143.296C1047.86 144.016 1046.3 144.376 1044.52 144.376C1042.6 144.376 1040.95 143.968 1039.55 143.152C1038.16 142.336 1036.94 141.208 1035.88 139.768C1034.87 138.328 1033.94 136.672 1033.07 134.8Z" fill="#ACACAC"/>
<path d="M367.156 327.938H385.783L384.625 322.904H368.263L367.156 327.938ZM376.369 311.727L381.957 324.817L382.108 326.277L386.891 337H393.586L376.369 299.796L359.151 337H365.847L370.73 325.975L370.831 324.666L376.369 311.727ZM401.838 327.938V313.842H396.25V328.542C396.25 331.294 396.938 333.476 398.314 335.087C399.723 336.698 401.72 337.503 404.305 337.503C405.916 337.503 407.292 337.168 408.433 336.497C409.608 335.792 410.564 334.768 411.302 333.426V337H416.74V313.842H411.302V327.938C411.302 328.978 411.084 329.901 410.648 330.707C410.212 331.479 409.608 332.083 408.836 332.519C408.064 332.922 407.157 333.123 406.117 333.123C404.674 333.123 403.6 332.67 402.895 331.764C402.19 330.858 401.838 329.583 401.838 327.938ZM441.102 297.732V337H446.59V297.732H441.102ZM421.921 325.421C421.921 327.938 422.441 330.103 423.482 331.915C424.522 333.728 425.898 335.12 427.61 336.094C429.355 337.034 431.218 337.503 433.198 337.503C435.145 337.503 436.84 337.017 438.283 336.043C439.76 335.07 440.918 333.677 441.757 331.865C442.629 330.053 443.066 327.904 443.066 325.421C443.066 322.904 442.629 320.756 441.757 318.977C440.918 317.164 439.76 315.772 438.283 314.798C436.84 313.825 435.145 313.338 433.198 313.338C431.218 313.338 429.355 313.825 427.61 314.798C425.898 315.738 424.522 317.114 423.482 318.926C422.441 320.705 421.921 322.87 421.921 325.421ZM427.56 325.421C427.56 323.877 427.879 322.551 428.516 321.444C429.154 320.336 429.993 319.497 431.033 318.926C432.107 318.356 433.265 318.071 434.507 318.071C435.548 318.071 436.571 318.356 437.578 318.926C438.619 319.497 439.458 320.336 440.095 321.444C440.767 322.518 441.102 323.843 441.102 325.421C441.102 326.998 440.767 328.341 440.095 329.448C439.458 330.522 438.619 331.345 437.578 331.915C436.571 332.486 435.548 332.771 434.507 332.771C433.265 332.771 432.107 332.486 431.033 331.915C429.993 331.345 429.154 330.506 428.516 329.398C427.879 328.29 427.56 326.965 427.56 325.421ZM453.128 304.629C453.128 305.535 453.463 306.324 454.135 306.995C454.84 307.633 455.645 307.951 456.551 307.951C457.525 307.951 458.33 307.633 458.968 306.995C459.639 306.324 459.975 305.535 459.975 304.629C459.975 303.689 459.639 302.9 458.968 302.263C458.33 301.625 457.525 301.306 456.551 301.306C455.645 301.306 454.84 301.625 454.135 302.263C453.463 302.9 453.128 303.689 453.128 304.629ZM453.883 313.842V337H459.22V313.842H453.883ZM464.94 325.421C464.94 327.77 465.477 329.868 466.551 331.714C467.658 333.526 469.152 334.953 471.032 335.993C472.911 337 475.042 337.503 477.425 337.503C479.808 337.503 481.923 337 483.769 335.993C485.648 334.953 487.142 333.526 488.249 331.714C489.357 329.868 489.911 327.77 489.911 325.421C489.911 323.038 489.357 320.94 488.249 319.128C487.142 317.315 485.648 315.906 483.769 314.899C481.923 313.858 479.808 313.338 477.425 313.338C475.042 313.338 472.911 313.858 471.032 314.899C469.152 315.906 467.658 317.315 466.551 319.128C465.477 320.94 464.94 323.038 464.94 325.421ZM470.528 325.421C470.528 323.978 470.83 322.702 471.434 321.595C472.038 320.487 472.861 319.631 473.901 319.027C474.942 318.423 476.116 318.121 477.425 318.121C478.701 318.121 479.859 318.423 480.899 319.027C481.973 319.631 482.812 320.487 483.416 321.595C484.02 322.702 484.322 323.978 484.322 325.421C484.322 326.864 484.02 328.139 483.416 329.247C482.812 330.321 481.973 331.177 480.899 331.815C479.859 332.419 478.701 332.721 477.425 332.721C476.116 332.721 474.942 332.419 473.901 331.815C472.861 331.177 472.038 330.321 471.434 329.247C470.83 328.139 470.528 326.864 470.528 325.421ZM515.55 313.842H510.163V337H515.55V313.842ZM522.447 319.631L525.065 315.05C524.562 314.412 523.941 313.976 523.202 313.741C522.464 313.472 521.675 313.338 520.836 313.338C519.661 313.338 518.52 313.758 517.413 314.597C516.339 315.436 515.449 316.577 514.744 318.02C514.073 319.43 513.738 321.058 513.738 322.904L515.55 323.961C515.55 322.853 515.667 321.897 515.902 321.091C516.171 320.252 516.59 319.598 517.161 319.128C517.732 318.658 518.47 318.423 519.376 318.423C520.047 318.423 520.601 318.524 521.037 318.725C521.474 318.926 521.944 319.229 522.447 319.631ZM538.128 337.503C540.813 337.503 543.112 336.983 545.025 335.943C546.938 334.902 548.499 333.342 549.707 331.261L545.025 329.348C544.286 330.59 543.364 331.512 542.256 332.117C541.148 332.721 539.856 333.023 538.379 333.023C536.97 333.023 535.762 332.721 534.755 332.117C533.781 331.512 533.043 330.64 532.54 329.499C532.036 328.324 531.784 326.898 531.784 325.219C531.818 323.541 532.086 322.132 532.59 320.991C533.093 319.849 533.832 318.977 534.805 318.373C535.778 317.769 536.953 317.466 538.329 317.466C539.47 317.466 540.46 317.718 541.299 318.222C542.172 318.725 542.843 319.43 543.313 320.336C543.817 321.242 544.068 322.316 544.068 323.558C544.068 323.793 544.001 324.095 543.867 324.464C543.766 324.8 543.666 325.068 543.565 325.27L545.226 322.954H529.519V326.679H549.858C549.891 326.545 549.908 326.327 549.908 326.025C549.942 325.723 549.959 325.438 549.959 325.169C549.959 322.685 549.489 320.571 548.549 318.826C547.643 317.047 546.334 315.688 544.622 314.748C542.91 313.808 540.83 313.338 538.379 313.338C535.929 313.338 533.798 313.842 531.986 314.849C530.173 315.822 528.764 317.215 527.757 319.027C526.783 320.84 526.297 322.971 526.297 325.421C526.297 327.837 526.783 329.952 527.757 331.764C528.73 333.577 530.106 334.986 531.885 335.993C533.697 337 535.778 337.503 538.128 337.503ZM558.773 325.421C558.773 323.978 559.092 322.702 559.73 321.595C560.367 320.487 561.223 319.614 562.297 318.977C563.405 318.339 564.63 318.02 565.972 318.02C567.046 318.02 568.087 318.188 569.094 318.524C570.101 318.859 570.99 319.329 571.762 319.933C572.567 320.504 573.155 321.175 573.524 321.947V315.956C572.718 315.151 571.628 314.513 570.252 314.043C568.876 313.573 567.365 313.338 565.721 313.338C563.338 313.338 561.19 313.858 559.277 314.899C557.397 315.906 555.904 317.315 554.796 319.128C553.722 320.94 553.185 323.038 553.185 325.421C553.185 327.77 553.722 329.868 554.796 331.714C555.904 333.526 557.397 334.953 559.277 335.993C561.19 337 563.338 337.503 565.721 337.503C567.365 337.503 568.876 337.269 570.252 336.799C571.628 336.329 572.718 335.691 573.524 334.886V328.895C573.155 329.633 572.584 330.304 571.812 330.908C571.04 331.512 570.151 331.982 569.144 332.318C568.137 332.654 567.08 332.821 565.972 332.821C564.63 332.821 563.405 332.503 562.297 331.865C561.223 331.227 560.367 330.371 559.73 329.297C559.092 328.19 558.773 326.898 558.773 325.421ZM577.772 325.421C577.772 327.77 578.309 329.868 579.383 331.714C580.49 333.526 581.984 334.953 583.863 335.993C585.743 337 587.874 337.503 590.257 337.503C592.64 337.503 594.755 337 596.601 335.993C598.48 334.953 599.974 333.526 601.081 331.714C602.189 329.868 602.743 327.77 602.743 325.421C602.743 323.038 602.189 320.94 601.081 319.128C599.974 317.315 598.48 315.906 596.601 314.899C594.755 313.858 592.64 313.338 590.257 313.338C587.874 313.338 585.743 313.858 583.863 314.899C581.984 315.906 580.49 317.315 579.383 319.128C578.309 320.94 577.772 323.038 577.772 325.421ZM583.36 325.421C583.36 323.978 583.662 322.702 584.266 321.595C584.87 320.487 585.693 319.631 586.733 319.027C587.774 318.423 588.948 318.121 590.257 318.121C591.533 318.121 592.69 318.423 593.731 319.027C594.805 319.631 595.644 320.487 596.248 321.595C596.852 322.702 597.154 323.978 597.154 325.421C597.154 326.864 596.852 328.139 596.248 329.247C595.644 330.321 594.805 331.177 593.731 331.815C592.69 332.419 591.533 332.721 590.257 332.721C588.948 332.721 587.774 332.419 586.733 331.815C585.693 331.177 584.87 330.321 584.266 329.247C583.662 328.139 583.36 326.864 583.36 325.421ZM613.288 313.842H607.902V337H613.288V313.842ZM620.186 319.631L622.803 315.05C622.3 314.412 621.679 313.976 620.941 313.741C620.202 313.472 619.414 313.338 618.575 313.338C617.4 313.338 616.259 313.758 615.151 314.597C614.077 315.436 613.188 316.577 612.483 318.02C611.812 319.43 611.476 321.058 611.476 322.904L613.288 323.961C613.288 322.853 613.406 321.897 613.641 321.091C613.909 320.252 614.329 319.598 614.899 319.128C615.47 318.658 616.208 318.423 617.115 318.423C617.786 318.423 618.34 318.524 618.776 318.725C619.212 318.926 619.682 319.229 620.186 319.631ZM643.954 297.732V337H649.441V297.732H643.954ZM624.773 325.421C624.773 327.938 625.293 330.103 626.333 331.915C627.374 333.728 628.75 335.12 630.462 336.094C632.207 337.034 634.07 337.503 636.05 337.503C637.997 337.503 639.691 337.017 641.135 336.043C642.611 335.07 643.769 333.677 644.608 331.865C645.481 330.053 645.917 327.904 645.917 325.421C645.917 322.904 645.481 320.756 644.608 318.977C643.769 317.164 642.611 315.772 641.135 314.798C639.691 313.825 637.997 313.338 636.05 313.338C634.07 313.338 632.207 313.825 630.462 314.798C628.75 315.738 627.374 317.114 626.333 318.926C625.293 320.705 624.773 322.87 624.773 325.421ZM630.411 325.421C630.411 323.877 630.73 322.551 631.368 321.444C632.006 320.336 632.845 319.497 633.885 318.926C634.959 318.356 636.117 318.071 637.359 318.071C638.399 318.071 639.423 318.356 640.43 318.926C641.47 319.497 642.309 320.336 642.947 321.444C643.618 322.518 643.954 323.843 643.954 325.421C643.954 326.998 643.618 328.341 642.947 329.448C642.309 330.522 641.47 331.345 640.43 331.915C639.423 332.486 638.399 332.771 637.359 332.771C636.117 332.771 634.959 332.486 633.885 331.915C632.845 331.345 632.006 330.506 631.368 329.398C630.73 328.29 630.411 326.965 630.411 325.421ZM655.979 304.629C655.979 305.535 656.315 306.324 656.986 306.995C657.691 307.633 658.497 307.951 659.403 307.951C660.376 307.951 661.182 307.633 661.819 306.995C662.491 306.324 662.826 305.535 662.826 304.629C662.826 303.689 662.491 302.9 661.819 302.263C661.182 301.625 660.376 301.306 659.403 301.306C658.497 301.306 657.691 301.625 656.986 302.263C656.315 302.9 655.979 303.689 655.979 304.629ZM656.735 313.842V337H662.071V313.842H656.735ZM684.455 322.904V337H690.044V322.3C690.044 319.514 689.356 317.332 687.98 315.755C686.603 314.144 684.606 313.338 681.989 313.338C680.378 313.338 678.985 313.674 677.81 314.345C676.669 315.016 675.729 316.04 674.991 317.416V313.842H669.554V337H674.991V322.904C674.991 321.863 675.209 320.957 675.645 320.185C676.082 319.38 676.686 318.775 677.458 318.373C678.23 317.936 679.119 317.718 680.126 317.718C681.603 317.718 682.693 318.154 683.398 319.027C684.103 319.9 684.455 321.192 684.455 322.904ZM695.678 338.561C695.745 340.574 696.249 342.353 697.189 343.897C698.162 345.441 699.538 346.633 701.317 347.472C703.096 348.344 705.244 348.781 707.761 348.781C709.875 348.781 711.839 348.327 713.651 347.421C715.463 346.549 716.923 345.206 718.031 343.394C719.172 341.581 719.743 339.282 719.743 336.497V313.842H714.406V336.497C714.406 338.242 714.071 339.668 713.399 340.776C712.762 341.883 711.923 342.706 710.882 343.243C709.842 343.78 708.751 344.048 707.61 344.048C706.334 344.048 705.21 343.813 704.237 343.343C703.263 342.873 702.491 342.219 701.921 341.38C701.384 340.541 701.099 339.601 701.065 338.561H695.678ZM695.225 325.32C695.225 327.837 695.745 329.985 696.786 331.764C697.826 333.543 699.202 334.902 700.914 335.842C702.659 336.782 704.522 337.252 706.502 337.252C708.449 337.252 710.144 336.782 711.587 335.842C713.064 334.869 714.222 333.493 715.061 331.714C715.933 329.935 716.37 327.804 716.37 325.32C716.37 322.803 715.933 320.655 715.061 318.876C714.222 317.097 713.064 315.738 711.587 314.798C710.144 313.825 708.449 313.338 706.502 313.338C704.522 313.338 702.659 313.808 700.914 314.748C699.202 315.688 697.826 317.047 696.786 318.826C695.745 320.571 695.225 322.736 695.225 325.32ZM700.864 325.32C700.864 323.743 701.183 322.417 701.82 321.343C702.458 320.269 703.297 319.463 704.337 318.926C705.411 318.356 706.569 318.071 707.811 318.071C708.583 318.071 709.355 318.222 710.127 318.524C710.933 318.826 711.654 319.296 712.292 319.933C712.929 320.537 713.433 321.293 713.802 322.199C714.205 323.071 714.406 324.112 714.406 325.32C714.406 326.864 714.071 328.19 713.399 329.297C712.762 330.371 711.923 331.177 710.882 331.714C709.875 332.251 708.852 332.519 707.811 332.519C706.569 332.519 705.411 332.251 704.337 331.714C703.297 331.143 702.458 330.321 701.82 329.247C701.183 328.173 700.864 326.864 700.864 325.32ZM729.909 331.462L725.479 344.501L729.506 345.609L735.346 333.023L729.909 331.462ZM758.467 329.398L755.296 332.57C755.967 333.442 756.789 334.281 757.762 335.087C758.769 335.859 759.927 336.497 761.236 337C762.579 337.47 764.039 337.705 765.616 337.705C768.167 337.705 770.181 337.05 771.657 335.741C773.168 334.399 773.923 332.637 773.923 330.455C773.923 329.046 773.587 327.904 772.916 327.032C772.278 326.159 771.422 325.421 770.348 324.817C769.274 324.213 768.1 323.659 766.824 323.155C765.885 322.786 765.029 322.434 764.257 322.098C763.518 321.762 762.914 321.393 762.444 320.991C762.008 320.554 761.79 320.068 761.79 319.531C761.79 318.893 762.042 318.406 762.545 318.071C763.049 317.735 763.686 317.567 764.458 317.567C765.599 317.567 766.707 317.852 767.781 318.423C768.855 318.994 769.778 319.732 770.55 320.638L773.571 317.416C772.933 316.644 772.161 315.956 771.255 315.352C770.348 314.748 769.325 314.261 768.184 313.892C767.076 313.523 765.885 313.338 764.609 313.338C763.2 313.338 761.874 313.573 760.632 314.043C759.424 314.479 758.45 315.167 757.712 316.107C757.007 317.047 756.655 318.222 756.655 319.631C756.655 321.007 756.974 322.148 757.611 323.055C758.283 323.961 759.122 324.699 760.129 325.27C761.169 325.807 762.21 326.277 763.25 326.679C764.29 327.049 765.197 327.418 765.969 327.787C766.74 328.123 767.345 328.542 767.781 329.046C768.217 329.515 768.435 330.086 768.435 330.757C768.435 331.529 768.15 332.133 767.58 332.57C767.043 333.006 766.287 333.224 765.314 333.224C764.542 333.224 763.77 333.09 762.998 332.821C762.226 332.519 761.454 332.083 760.682 331.512C759.944 330.908 759.206 330.204 758.467 329.398ZM778.546 304.629C778.546 305.535 778.882 306.324 779.553 306.995C780.258 307.633 781.063 307.951 781.969 307.951C782.943 307.951 783.748 307.633 784.386 306.995C785.057 306.324 785.393 305.535 785.393 304.629C785.393 303.689 785.057 302.9 784.386 302.263C783.748 301.625 782.943 301.306 781.969 301.306C781.063 301.306 780.258 301.625 779.553 302.263C778.882 302.9 778.546 303.689 778.546 304.629ZM779.301 313.842V337H784.638V313.842H779.301ZM825.246 322.3C825.246 320.386 824.978 318.759 824.441 317.416C823.904 316.074 823.082 315.067 821.974 314.395C820.9 313.691 819.541 313.338 817.896 313.338C816.319 313.338 814.909 313.691 813.667 314.395C812.459 315.1 811.452 316.124 810.647 317.466C810.143 316.124 809.321 315.1 808.18 314.395C807.072 313.691 805.663 313.338 803.951 313.338C802.474 313.338 801.182 313.674 800.074 314.345C799 314.983 798.128 315.939 797.456 317.215V313.842H792.12V337H797.456V322.904C797.456 321.796 797.641 320.856 798.01 320.084C798.379 319.312 798.9 318.725 799.571 318.322C800.276 317.92 801.098 317.718 802.038 317.718C803.38 317.718 804.354 318.154 804.958 319.027C805.595 319.866 805.914 321.158 805.914 322.904V337H811.351V322.904C811.351 321.796 811.536 320.856 811.905 320.084C812.308 319.312 812.845 318.725 813.516 318.322C814.221 317.92 815.027 317.718 815.933 317.718C817.275 317.718 818.249 318.154 818.853 319.027C819.49 319.866 819.809 321.158 819.809 322.904V337H825.246V322.3ZM837.475 348.076V313.842H831.987V348.076H837.475ZM856.656 325.421C856.656 322.837 856.136 320.638 855.095 318.826C854.055 317.013 852.679 315.637 850.967 314.698C849.255 313.724 847.393 313.238 845.379 313.238C843.399 313.238 841.67 313.741 840.194 314.748C838.75 315.721 837.626 317.114 836.82 318.926C836.049 320.739 835.663 322.904 835.663 325.421C835.663 327.904 836.049 330.069 836.82 331.915C837.626 333.728 838.75 335.137 840.194 336.144C841.67 337.117 843.399 337.604 845.379 337.604C847.393 337.604 849.255 337.134 850.967 336.194C852.679 335.221 854.055 333.828 855.095 332.016C856.136 330.17 856.656 327.972 856.656 325.421ZM851.018 325.421C851.018 326.965 850.699 328.29 850.061 329.398C849.423 330.472 848.567 331.294 847.493 331.865C846.453 332.402 845.295 332.67 844.02 332.67C842.979 332.67 841.956 332.402 840.949 331.865C839.942 331.294 839.103 330.472 838.431 329.398C837.794 328.324 837.475 326.998 837.475 325.421C837.475 323.843 837.794 322.518 838.431 321.444C839.103 320.37 839.942 319.564 840.949 319.027C841.956 318.457 842.979 318.171 844.02 318.171C845.295 318.171 846.453 318.457 847.493 319.027C848.567 319.564 849.423 320.386 850.061 321.494C850.699 322.568 851.018 323.877 851.018 325.421ZM861.835 297.732V337H867.272V297.732H861.835ZM874.023 304.629C874.023 305.535 874.358 306.324 875.03 306.995C875.735 307.633 876.54 307.951 877.446 307.951C878.42 307.951 879.225 307.633 879.863 306.995C880.534 306.324 880.87 305.535 880.87 304.629C880.87 303.689 880.534 302.9 879.863 302.263C879.225 301.625 878.42 301.306 877.446 301.306C876.54 301.306 875.735 301.625 875.03 302.263C874.358 302.9 874.023 303.689 874.023 304.629ZM874.778 313.842V337H880.115V313.842H874.778ZM885.684 313.842V318.624H898.975V313.842H885.684ZM898.371 303.571L900.938 299.343C900.67 299.007 900.284 298.671 899.78 298.336C899.31 298 898.74 297.715 898.069 297.48C897.397 297.245 896.609 297.127 895.702 297.127C894.091 297.127 892.732 297.446 891.624 298.084C890.517 298.688 889.661 299.594 889.057 300.803C888.486 301.977 888.201 303.471 888.201 305.283V337H893.538V306.34C893.538 305.367 893.638 304.578 893.84 303.974C894.041 303.37 894.309 302.934 894.645 302.665C895.014 302.397 895.451 302.263 895.954 302.263C896.39 302.263 896.81 302.346 897.213 302.514C897.649 302.682 898.035 303.034 898.371 303.571ZM902.931 304.629C902.931 305.535 903.267 306.324 903.938 306.995C904.643 307.633 905.449 307.951 906.355 307.951C907.328 307.951 908.134 307.633 908.771 306.995C909.443 306.324 909.778 305.535 909.778 304.629C909.778 303.689 909.443 302.9 908.771 302.263C908.134 301.625 907.328 301.306 906.355 301.306C905.449 301.306 904.643 301.625 903.938 302.263C903.267 302.9 902.931 303.689 902.931 304.629ZM903.687 313.842V337H909.023V313.842H903.687ZM926.574 337.503C929.259 337.503 931.558 336.983 933.471 335.943C935.385 334.902 936.945 333.342 938.153 331.261L933.471 329.348C932.733 330.59 931.81 331.512 930.703 332.117C929.595 332.721 928.303 333.023 926.826 333.023C925.416 333.023 924.208 332.721 923.201 332.117C922.228 331.512 921.49 330.64 920.986 329.499C920.483 328.324 920.231 326.898 920.231 325.219C920.265 323.541 920.533 322.132 921.036 320.991C921.54 319.849 922.278 318.977 923.252 318.373C924.225 317.769 925.4 317.466 926.776 317.466C927.917 317.466 928.907 317.718 929.746 318.222C930.619 318.725 931.29 319.43 931.76 320.336C932.263 321.242 932.515 322.316 932.515 323.558C932.515 323.793 932.448 324.095 932.314 324.464C932.213 324.8 932.112 325.068 932.011 325.27L933.673 322.954H917.965V326.679H938.305C938.338 326.545 938.355 326.327 938.355 326.025C938.388 325.723 938.405 325.438 938.405 325.169C938.405 322.685 937.935 320.571 936.996 318.826C936.089 317.047 934.78 315.688 933.069 314.748C931.357 313.808 929.276 313.338 926.826 313.338C924.376 313.338 922.245 313.842 920.432 314.849C918.62 315.822 917.21 317.215 916.203 319.027C915.23 320.84 914.743 322.971 914.743 325.421C914.743 327.837 915.23 329.952 916.203 331.764C917.177 333.577 918.553 334.986 920.332 335.993C922.144 337 924.225 337.503 926.574 337.503ZM961.014 297.732V337H966.502V297.732H961.014ZM941.833 325.421C941.833 327.938 942.353 330.103 943.394 331.915C944.434 333.728 945.81 335.12 947.522 336.094C949.267 337.034 951.13 337.503 953.11 337.503C955.057 337.503 956.752 337.017 958.195 336.043C959.672 335.07 960.829 333.677 961.669 331.865C962.541 330.053 962.977 327.904 962.977 325.421C962.977 322.904 962.541 320.756 961.669 318.977C960.829 317.164 959.672 315.772 958.195 314.798C956.752 313.825 955.057 313.338 953.11 313.338C951.13 313.338 949.267 313.825 947.522 314.798C945.81 315.738 944.434 317.114 943.394 318.926C942.353 320.705 941.833 322.87 941.833 325.421ZM947.471 325.421C947.471 323.877 947.79 322.551 948.428 321.444C949.066 320.336 949.905 319.497 950.945 318.926C952.019 318.356 953.177 318.071 954.419 318.071C955.459 318.071 956.483 318.356 957.49 318.926C958.53 319.497 959.369 320.336 960.007 321.444C960.678 322.518 961.014 323.843 961.014 325.421C961.014 326.998 960.678 328.341 960.007 329.448C959.369 330.522 958.53 331.345 957.49 331.915C956.483 332.486 955.459 332.771 954.419 332.771C953.177 332.771 952.019 332.486 950.945 331.915C949.905 331.345 949.066 330.506 948.428 329.398C947.79 328.29 947.471 326.965 947.471 325.421ZM973.996 334.432C973.996 335.372 974.332 336.194 975.003 336.899C975.708 337.604 976.547 337.957 977.52 337.957C978.561 337.957 979.417 337.604 980.088 336.899C980.759 336.194 981.095 335.372 981.095 334.432C981.095 333.459 980.759 332.637 980.088 331.966C979.417 331.261 978.561 330.908 977.52 330.908C976.547 330.908 975.708 331.261 975.003 331.966C974.332 332.637 973.996 333.459 973.996 334.432Z" fill="#707070"/>
<defs>
<filter id="filter0_f_13_92" x="122.819" y="97.2508" width="179.499" height="179.499" filterUnits="userSpaceOnUse" color-interpolation-filters="sRGB">
<feFlood flood-opacity="0" result="BackgroundImageFix"/>
<feBlend mode="normal" in="SourceGraphic" in2="BackgroundImageFix" result="shape"/>
<feGaussianBlur stdDeviation="18.7957" result="effect1_foregroundBlur_13_92"/>
</filter>
<filter id="filter1_f_13_92" x="166.989" y="141.421" width="92.0988" height="92.0987" filterUnits="userSpaceOnUse" color-interpolation-filters="sRGB">
<feFlood flood-opacity="0" result="BackgroundImageFix"/>
<feBlend mode="normal" in="SourceGraphic" in2="BackgroundImageFix" result="shape"/>
<feGaussianBlur stdDeviation="14.0967" result="effect1_foregroundBlur_13_92"/>
</filter>
<linearGradient id="paint0_linear_13_92" x1="295.269" y1="268.761" x2="134.567" y2="94.4314" gradientUnits="userSpaceOnUse">
<stop stop-color="#AF1A1A"/>
<stop offset="1" stop-color="#FF0B0B"/>
</linearGradient>
<linearGradient id="paint1_linear_13_92" x1="295.269" y1="268.761" x2="134.567" y2="94.4314" gradientUnits="userSpaceOnUse">
<stop stop-color="#AF1A1A"/>
<stop offset="1" stop-color="#FF0B0B"/>
</linearGradient>
</defs>
</svg>
