<svg width="947" height="295" viewBox="0 0 947 295" fill="none" xmlns="http://www.w3.org/2000/svg">
<mask id="mask0_2_46" style="mask-type:alpha" maskUnits="userSpaceOnUse" x="0" y="20" width="186" height="186">
<circle cx="92.5686" cy="113" r="92.5686" fill="url(#paint0_linear_2_46)"/>
</mask>
<g mask="url(#mask0_2_46)">
<circle cx="92.5686" cy="113" r="92.5686" fill="url(#paint1_linear_2_46)"/>
<g opacity="0.2" filter="url(#filter0_f_2_46)">
<circle cx="92.5686" cy="113" r="52.1579" fill="white"/>
</g>
<g opacity="0.4" filter="url(#filter1_f_2_46)">
<circle cx="93.0385" cy="113.47" r="17.8559" fill="white"/>
</g>
<g style="mix-blend-mode:soft-light" opacity="0.3">
<ellipse cx="93.0386" cy="88.0958" rx="111.834" ry="94.9181" fill="white"/>
</g>
</g>
<path d="M312.615 190.205C303.927 190.205 296.449 189.065 290.182 186.786C283.915 184.365 277.861 180.448 272.022 175.036V187H245.956V29.1121H272.876V94.4892C277.719 90.0738 283.559 86.7978 290.396 84.6613C297.375 82.3824 304.781 81.2429 312.615 81.2429C323.013 81.2429 332.271 83.5931 340.39 88.2934C348.651 92.8513 355.061 99.2608 359.618 107.522C364.319 115.783 366.669 125.255 366.669 135.937C366.669 146.762 364.319 156.306 359.618 164.567C355.061 172.685 348.651 179.024 340.39 183.582C332.271 187.997 323.013 190.205 312.615 190.205ZM305.992 169.053C315.678 169.053 323.654 165.991 329.921 159.866C336.188 153.742 339.322 145.765 339.322 135.937C339.322 126.11 336.188 118.062 329.921 111.795C323.654 105.528 315.678 102.394 305.992 102.394C298.301 102.394 291.393 104.531 285.268 108.804C279.286 112.934 275.155 118.489 272.876 125.469V146.193C275.298 153.172 279.499 158.727 285.482 162.857C291.464 166.988 298.301 169.053 305.992 169.053ZM438.38 190.205C426.416 190.205 415.876 188.068 406.76 183.795C397.787 179.38 390.808 173.113 385.822 164.994C380.837 156.733 378.345 146.976 378.345 135.724C378.345 124.756 380.766 115.213 385.609 107.095C390.594 98.8335 397.644 92.4952 406.76 88.0797C415.876 83.5218 426.416 81.2429 438.38 81.2429C450.345 81.2429 460.814 83.5218 469.787 88.0797C478.903 92.4952 485.953 98.8335 490.938 107.095C495.924 115.213 498.416 124.756 498.416 135.724C498.416 146.976 495.924 156.733 490.938 164.994C485.953 173.113 478.903 179.38 469.787 183.795C460.814 188.068 450.345 190.205 438.38 190.205ZM438.38 169.053C448.208 169.053 456.042 165.991 461.882 159.866C467.722 153.599 470.642 145.552 470.642 135.724C470.642 125.326 467.722 117.207 461.882 111.368C456.185 105.385 448.351 102.394 438.38 102.394C428.41 102.394 420.505 105.385 414.665 111.368C408.968 117.207 406.119 125.326 406.119 135.724C406.119 145.552 409.039 153.599 414.879 159.866C420.719 165.991 428.552 169.053 438.38 169.053ZM570.034 190.205C558.07 190.205 547.53 188.068 538.414 183.795C529.441 179.38 522.461 173.113 517.476 164.994C512.491 156.733 509.998 146.976 509.998 135.724C509.998 124.756 512.42 115.213 517.263 107.095C522.248 98.8335 529.298 92.4952 538.414 88.0797C547.53 83.5218 558.07 81.2429 570.034 81.2429C581.999 81.2429 592.468 83.5218 601.441 88.0797C610.557 92.4952 617.607 98.8335 622.592 107.095C627.578 115.213 630.07 124.756 630.07 135.724C630.07 146.976 627.578 156.733 622.592 164.994C617.607 173.113 610.557 179.38 601.441 183.795C592.468 188.068 581.999 190.205 570.034 190.205ZM570.034 169.053C579.862 169.053 587.696 165.991 593.536 159.866C599.376 153.599 602.296 145.552 602.296 135.724C602.296 125.326 599.376 117.207 593.536 111.368C587.839 105.385 580.005 102.394 570.034 102.394C560.064 102.394 552.159 105.385 546.319 111.368C540.622 117.207 537.773 125.326 537.773 135.724C537.773 145.552 540.693 153.599 546.533 159.866C552.373 165.991 560.206 169.053 570.034 169.053ZM689.455 190.205C678.203 190.205 669.657 187.071 663.817 180.804C657.977 174.537 655.057 165.706 655.057 154.311V104.958H639.674V84.4477H655.057V53.682H681.977V84.4477H706.547V104.958H681.977V150.893C681.977 157.445 683.188 162.145 685.609 164.994C688.031 167.7 692.446 169.053 698.856 169.053C703.271 169.053 707.615 168.056 711.888 166.062V186.573C705.764 188.994 698.286 190.205 689.455 190.205ZM731.052 29.1121H757.972V97.4804C767.657 86.6554 780.191 81.2429 795.574 81.2429C809.39 81.2429 819.717 85.0174 826.554 92.5664C833.391 99.9729 836.809 109.872 836.809 122.264V187H809.889V124.828C809.889 109.872 802.91 102.394 788.951 102.394C782.827 102.394 777.058 103.89 771.645 106.881C766.233 109.73 761.675 114.074 757.972 119.914V187H731.052V29.1121Z" fill="#3D3D3D"/>
<path d="M873.073 83.336L867.817 89.528C868.921 90.488 870.337 91.352 872.065 92.12C873.745 92.936 875.617 93.344 877.681 93.344C880.225 93.344 882.529 92.864 884.593 91.904C886.705 90.944 888.433 89.552 889.777 87.728C891.169 85.904 892.081 83.72 892.513 81.176L901.801 26.6H893.161L884.089 79.592C883.849 81.464 883.129 82.952 881.929 84.056C880.777 85.16 879.529 85.76 878.185 85.856C877.081 85.904 876.097 85.664 875.233 85.136C874.369 84.656 873.649 84.056 873.073 83.336ZM913.075 60.8L906.595 65.12C907.459 67.472 908.707 69.632 910.339 71.6C911.971 73.568 913.939 75.152 916.243 76.352C918.595 77.504 921.211 78.08 924.091 78.08C927.259 78.08 930.211 77.384 932.947 75.992C935.683 74.6 937.915 72.704 939.643 70.304C941.371 67.904 942.307 65.144 942.451 62.024C942.547 59.384 942.067 57.176 941.011 55.4C940.003 53.576 938.659 52.064 936.979 50.864C935.347 49.664 933.571 48.704 931.651 47.984C930.259 47.408 928.963 46.832 927.763 46.256C926.611 45.632 925.603 44.984 924.739 44.312C923.875 43.592 923.203 42.824 922.723 42.008C922.291 41.144 922.099 40.232 922.147 39.272C922.195 38.12 922.507 37.088 923.083 36.176C923.659 35.264 924.475 34.544 925.531 34.016C926.635 33.488 927.955 33.224 929.491 33.224C931.315 33.224 932.827 33.56 934.027 34.232C935.275 34.904 936.283 35.792 937.051 36.896C937.867 37.952 938.563 39.08 939.139 40.28L946.123 36.608C945.355 34.688 944.275 32.912 942.883 31.28C941.491 29.6 939.763 28.256 937.699 27.248C935.635 26.24 933.187 25.736 930.355 25.736C927.187 25.688 924.355 26.288 921.859 27.536C919.363 28.736 917.371 30.416 915.883 32.576C914.395 34.688 913.579 37.088 913.435 39.776C913.387 41.792 913.699 43.568 914.371 45.104C915.091 46.592 916.027 47.888 917.179 48.992C918.331 50.096 919.555 51.032 920.851 51.8C922.147 52.568 923.395 53.216 924.595 53.744C926.323 54.512 927.883 55.256 929.275 55.976C930.667 56.696 931.747 57.56 932.515 58.568C933.331 59.576 933.715 60.92 933.667 62.6C933.619 63.944 933.211 65.216 932.443 66.416C931.675 67.616 930.595 68.576 929.203 69.296C927.859 70.016 926.299 70.376 924.523 70.376C922.603 70.376 920.947 69.968 919.555 69.152C918.163 68.336 916.939 67.208 915.883 65.768C914.875 64.328 913.939 62.672 913.075 60.8Z" fill="#ACACAC"/>
<path d="M247.156 253.938H265.783L264.625 248.904H248.263L247.156 253.938ZM256.369 237.727L261.957 250.817L262.108 252.277L266.891 263H273.586L256.369 225.796L239.151 263H245.847L250.73 251.975L250.831 250.666L256.369 237.727ZM281.838 253.938V239.842H276.25V254.542C276.25 257.294 276.938 259.476 278.314 261.087C279.723 262.698 281.72 263.503 284.305 263.503C285.916 263.503 287.292 263.168 288.433 262.497C289.608 261.792 290.564 260.768 291.302 259.426V263H296.74V239.842H291.302V253.938C291.302 254.978 291.084 255.901 290.648 256.707C290.212 257.479 289.608 258.083 288.836 258.519C288.064 258.922 287.157 259.123 286.117 259.123C284.674 259.123 283.6 258.67 282.895 257.764C282.19 256.858 281.838 255.583 281.838 253.938ZM321.102 223.732V263H326.59V223.732H321.102ZM301.921 251.421C301.921 253.938 302.441 256.103 303.482 257.915C304.522 259.728 305.898 261.12 307.61 262.094C309.355 263.034 311.218 263.503 313.198 263.503C315.145 263.503 316.84 263.017 318.283 262.043C319.76 261.07 320.918 259.677 321.757 257.865C322.629 256.053 323.066 253.904 323.066 251.421C323.066 248.904 322.629 246.756 321.757 244.977C320.918 243.164 319.76 241.772 318.283 240.798C316.84 239.825 315.145 239.338 313.198 239.338C311.218 239.338 309.355 239.825 307.61 240.798C305.898 241.738 304.522 243.114 303.482 244.926C302.441 246.705 301.921 248.87 301.921 251.421ZM307.56 251.421C307.56 249.877 307.879 248.551 308.516 247.444C309.154 246.336 309.993 245.497 311.033 244.926C312.107 244.356 313.265 244.071 314.507 244.071C315.548 244.071 316.571 244.356 317.578 244.926C318.619 245.497 319.458 246.336 320.095 247.444C320.767 248.518 321.102 249.843 321.102 251.421C321.102 252.998 320.767 254.341 320.095 255.448C319.458 256.522 318.619 257.345 317.578 257.915C316.571 258.486 315.548 258.771 314.507 258.771C313.265 258.771 312.107 258.486 311.033 257.915C309.993 257.345 309.154 256.506 308.516 255.398C307.879 254.29 307.56 252.965 307.56 251.421ZM333.128 230.629C333.128 231.535 333.463 232.324 334.135 232.995C334.84 233.633 335.645 233.951 336.551 233.951C337.525 233.951 338.33 233.633 338.968 232.995C339.639 232.324 339.975 231.535 339.975 230.629C339.975 229.689 339.639 228.9 338.968 228.263C338.33 227.625 337.525 227.306 336.551 227.306C335.645 227.306 334.84 227.625 334.135 228.263C333.463 228.9 333.128 229.689 333.128 230.629ZM333.883 239.842V263H339.22V239.842H333.883ZM344.94 251.421C344.94 253.77 345.477 255.868 346.551 257.714C347.658 259.526 349.152 260.953 351.032 261.993C352.911 263 355.042 263.503 357.425 263.503C359.808 263.503 361.923 263 363.769 261.993C365.648 260.953 367.142 259.526 368.249 257.714C369.357 255.868 369.911 253.77 369.911 251.421C369.911 249.038 369.357 246.94 368.249 245.128C367.142 243.315 365.648 241.906 363.769 240.899C361.923 239.858 359.808 239.338 357.425 239.338C355.042 239.338 352.911 239.858 351.032 240.899C349.152 241.906 347.658 243.315 346.551 245.128C345.477 246.94 344.94 249.038 344.94 251.421ZM350.528 251.421C350.528 249.978 350.83 248.702 351.434 247.595C352.038 246.487 352.861 245.631 353.901 245.027C354.942 244.423 356.116 244.121 357.425 244.121C358.701 244.121 359.859 244.423 360.899 245.027C361.973 245.631 362.812 246.487 363.416 247.595C364.02 248.702 364.322 249.978 364.322 251.421C364.322 252.864 364.02 254.139 363.416 255.247C362.812 256.321 361.973 257.177 360.899 257.815C359.859 258.419 358.701 258.721 357.425 258.721C356.116 258.721 354.942 258.419 353.901 257.815C352.861 257.177 352.038 256.321 351.434 255.247C350.83 254.139 350.528 252.864 350.528 251.421ZM395.55 239.842H390.163V263H395.55V239.842ZM402.447 245.631L405.065 241.05C404.562 240.412 403.941 239.976 403.202 239.741C402.464 239.472 401.675 239.338 400.836 239.338C399.661 239.338 398.52 239.758 397.413 240.597C396.339 241.436 395.449 242.577 394.744 244.02C394.073 245.43 393.738 247.058 393.738 248.904L395.55 249.961C395.55 248.853 395.667 247.897 395.902 247.091C396.171 246.252 396.59 245.598 397.161 245.128C397.732 244.658 398.47 244.423 399.376 244.423C400.047 244.423 400.601 244.524 401.037 244.725C401.474 244.926 401.944 245.229 402.447 245.631ZM418.128 263.503C420.813 263.503 423.112 262.983 425.025 261.943C426.938 260.902 428.499 259.342 429.707 257.261L425.025 255.348C424.286 256.59 423.364 257.512 422.256 258.117C421.148 258.721 419.856 259.023 418.379 259.023C416.97 259.023 415.762 258.721 414.755 258.117C413.781 257.512 413.043 256.64 412.54 255.499C412.036 254.324 411.784 252.898 411.784 251.219C411.818 249.541 412.086 248.132 412.59 246.991C413.093 245.849 413.832 244.977 414.805 244.373C415.778 243.769 416.953 243.466 418.329 243.466C419.47 243.466 420.46 243.718 421.299 244.222C422.172 244.725 422.843 245.43 423.313 246.336C423.817 247.242 424.068 248.316 424.068 249.558C424.068 249.793 424.001 250.095 423.867 250.464C423.766 250.8 423.666 251.068 423.565 251.27L425.226 248.954H409.519V252.679H429.858C429.891 252.545 429.908 252.327 429.908 252.025C429.942 251.723 429.959 251.438 429.959 251.169C429.959 248.685 429.489 246.571 428.549 244.826C427.643 243.047 426.334 241.688 424.622 240.748C422.91 239.808 420.83 239.338 418.379 239.338C415.929 239.338 413.798 239.842 411.986 240.849C410.173 241.822 408.764 243.215 407.757 245.027C406.783 246.84 406.297 248.971 406.297 251.421C406.297 253.837 406.783 255.952 407.757 257.764C408.73 259.577 410.106 260.986 411.885 261.993C413.697 263 415.778 263.503 418.128 263.503ZM438.773 251.421C438.773 249.978 439.092 248.702 439.73 247.595C440.367 246.487 441.223 245.614 442.297 244.977C443.405 244.339 444.63 244.02 445.972 244.02C447.046 244.02 448.087 244.188 449.094 244.524C450.101 244.859 450.99 245.329 451.762 245.933C452.567 246.504 453.155 247.175 453.524 247.947V241.956C452.718 241.151 451.628 240.513 450.252 240.043C448.876 239.573 447.365 239.338 445.721 239.338C443.338 239.338 441.19 239.858 439.277 240.899C437.397 241.906 435.904 243.315 434.796 245.128C433.722 246.94 433.185 249.038 433.185 251.421C433.185 253.77 433.722 255.868 434.796 257.714C435.904 259.526 437.397 260.953 439.277 261.993C441.19 263 443.338 263.503 445.721 263.503C447.365 263.503 448.876 263.269 450.252 262.799C451.628 262.329 452.718 261.691 453.524 260.886V254.895C453.155 255.633 452.584 256.304 451.812 256.908C451.04 257.512 450.151 257.982 449.144 258.318C448.137 258.654 447.08 258.821 445.972 258.821C444.63 258.821 443.405 258.503 442.297 257.865C441.223 257.227 440.367 256.371 439.73 255.297C439.092 254.19 438.773 252.898 438.773 251.421ZM457.772 251.421C457.772 253.77 458.309 255.868 459.383 257.714C460.49 259.526 461.984 260.953 463.863 261.993C465.743 263 467.874 263.503 470.257 263.503C472.64 263.503 474.755 263 476.601 261.993C478.48 260.953 479.974 259.526 481.081 257.714C482.189 255.868 482.743 253.77 482.743 251.421C482.743 249.038 482.189 246.94 481.081 245.128C479.974 243.315 478.48 241.906 476.601 240.899C474.755 239.858 472.64 239.338 470.257 239.338C467.874 239.338 465.743 239.858 463.863 240.899C461.984 241.906 460.49 243.315 459.383 245.128C458.309 246.94 457.772 249.038 457.772 251.421ZM463.36 251.421C463.36 249.978 463.662 248.702 464.266 247.595C464.87 246.487 465.693 245.631 466.733 245.027C467.774 244.423 468.948 244.121 470.257 244.121C471.533 244.121 472.69 244.423 473.731 245.027C474.805 245.631 475.644 246.487 476.248 247.595C476.852 248.702 477.154 249.978 477.154 251.421C477.154 252.864 476.852 254.139 476.248 255.247C475.644 256.321 474.805 257.177 473.731 257.815C472.69 258.419 471.533 258.721 470.257 258.721C468.948 258.721 467.774 258.419 466.733 257.815C465.693 257.177 464.87 256.321 464.266 255.247C463.662 254.139 463.36 252.864 463.36 251.421ZM493.288 239.842H487.902V263H493.288V239.842ZM500.186 245.631L502.803 241.05C502.3 240.412 501.679 239.976 500.941 239.741C500.202 239.472 499.414 239.338 498.575 239.338C497.4 239.338 496.259 239.758 495.151 240.597C494.077 241.436 493.188 242.577 492.483 244.02C491.812 245.43 491.476 247.058 491.476 248.904L493.288 249.961C493.288 248.853 493.406 247.897 493.641 247.091C493.909 246.252 494.329 245.598 494.899 245.128C495.47 244.658 496.208 244.423 497.115 244.423C497.786 244.423 498.34 244.524 498.776 244.725C499.212 244.926 499.682 245.229 500.186 245.631ZM523.954 223.732V263H529.441V223.732H523.954ZM504.773 251.421C504.773 253.938 505.293 256.103 506.333 257.915C507.374 259.728 508.75 261.12 510.462 262.094C512.207 263.034 514.07 263.503 516.05 263.503C517.997 263.503 519.691 263.017 521.135 262.043C522.611 261.07 523.769 259.677 524.608 257.865C525.481 256.053 525.917 253.904 525.917 251.421C525.917 248.904 525.481 246.756 524.608 244.977C523.769 243.164 522.611 241.772 521.135 240.798C519.691 239.825 517.997 239.338 516.05 239.338C514.07 239.338 512.207 239.825 510.462 240.798C508.75 241.738 507.374 243.114 506.333 244.926C505.293 246.705 504.773 248.87 504.773 251.421ZM510.411 251.421C510.411 249.877 510.73 248.551 511.368 247.444C512.006 246.336 512.845 245.497 513.885 244.926C514.959 244.356 516.117 244.071 517.359 244.071C518.399 244.071 519.423 244.356 520.43 244.926C521.47 245.497 522.309 246.336 522.947 247.444C523.618 248.518 523.954 249.843 523.954 251.421C523.954 252.998 523.618 254.341 522.947 255.448C522.309 256.522 521.47 257.345 520.43 257.915C519.423 258.486 518.399 258.771 517.359 258.771C516.117 258.771 514.959 258.486 513.885 257.915C512.845 257.345 512.006 256.506 511.368 255.398C510.73 254.29 510.411 252.965 510.411 251.421ZM535.979 230.629C535.979 231.535 536.315 232.324 536.986 232.995C537.691 233.633 538.497 233.951 539.403 233.951C540.376 233.951 541.182 233.633 541.819 232.995C542.491 232.324 542.826 231.535 542.826 230.629C542.826 229.689 542.491 228.9 541.819 228.263C541.182 227.625 540.376 227.306 539.403 227.306C538.497 227.306 537.691 227.625 536.986 228.263C536.315 228.9 535.979 229.689 535.979 230.629ZM536.735 239.842V263H542.071V239.842H536.735ZM564.455 248.904V263H570.044V248.3C570.044 245.514 569.356 243.332 567.98 241.755C566.603 240.144 564.606 239.338 561.989 239.338C560.378 239.338 558.985 239.674 557.81 240.345C556.669 241.016 555.729 242.04 554.991 243.416V239.842H549.554V263H554.991V248.904C554.991 247.863 555.209 246.957 555.645 246.185C556.082 245.38 556.686 244.775 557.458 244.373C558.23 243.936 559.119 243.718 560.126 243.718C561.603 243.718 562.693 244.154 563.398 245.027C564.103 245.9 564.455 247.192 564.455 248.904ZM575.678 264.561C575.745 266.574 576.249 268.353 577.189 269.897C578.162 271.441 579.538 272.633 581.317 273.472C583.096 274.344 585.244 274.781 587.761 274.781C589.875 274.781 591.839 274.327 593.651 273.421C595.463 272.549 596.923 271.206 598.031 269.394C599.172 267.581 599.743 265.282 599.743 262.497V239.842H594.406V262.497C594.406 264.242 594.071 265.668 593.399 266.776C592.762 267.883 591.923 268.706 590.882 269.243C589.842 269.78 588.751 270.048 587.61 270.048C586.334 270.048 585.21 269.813 584.237 269.343C583.263 268.873 582.491 268.219 581.921 267.38C581.384 266.541 581.099 265.601 581.065 264.561H575.678ZM575.225 251.32C575.225 253.837 575.745 255.985 576.786 257.764C577.826 259.543 579.202 260.902 580.914 261.842C582.659 262.782 584.522 263.252 586.502 263.252C588.449 263.252 590.144 262.782 591.587 261.842C593.064 260.869 594.222 259.493 595.061 257.714C595.933 255.935 596.37 253.804 596.37 251.32C596.37 248.803 595.933 246.655 595.061 244.876C594.222 243.097 593.064 241.738 591.587 240.798C590.144 239.825 588.449 239.338 586.502 239.338C584.522 239.338 582.659 239.808 580.914 240.748C579.202 241.688 577.826 243.047 576.786 244.826C575.745 246.571 575.225 248.736 575.225 251.32ZM580.864 251.32C580.864 249.743 581.183 248.417 581.82 247.343C582.458 246.269 583.297 245.463 584.337 244.926C585.411 244.356 586.569 244.071 587.811 244.071C588.583 244.071 589.355 244.222 590.127 244.524C590.933 244.826 591.654 245.296 592.292 245.933C592.929 246.537 593.433 247.293 593.802 248.199C594.205 249.071 594.406 250.112 594.406 251.32C594.406 252.864 594.071 254.19 593.399 255.297C592.762 256.371 591.923 257.177 590.882 257.714C589.875 258.251 588.852 258.519 587.811 258.519C586.569 258.519 585.411 258.251 584.337 257.714C583.297 257.143 582.458 256.321 581.82 255.247C581.183 254.173 580.864 252.864 580.864 251.32ZM609.909 257.462L605.479 270.501L609.506 271.609L615.346 259.023L609.909 257.462ZM638.467 255.398L635.296 258.57C635.967 259.442 636.789 260.281 637.762 261.087C638.769 261.859 639.927 262.497 641.236 263C642.579 263.47 644.039 263.705 645.616 263.705C648.167 263.705 650.181 263.05 651.657 261.741C653.168 260.399 653.923 258.637 653.923 256.455C653.923 255.046 653.587 253.904 652.916 253.032C652.278 252.159 651.422 251.421 650.348 250.817C649.274 250.213 648.1 249.659 646.824 249.155C645.885 248.786 645.029 248.434 644.257 248.098C643.518 247.762 642.914 247.393 642.444 246.991C642.008 246.554 641.79 246.068 641.79 245.531C641.79 244.893 642.042 244.406 642.545 244.071C643.049 243.735 643.686 243.567 644.458 243.567C645.599 243.567 646.707 243.852 647.781 244.423C648.855 244.994 649.778 245.732 650.55 246.638L653.571 243.416C652.933 242.644 652.161 241.956 651.255 241.352C650.348 240.748 649.325 240.261 648.184 239.892C647.076 239.523 645.885 239.338 644.609 239.338C643.2 239.338 641.874 239.573 640.632 240.043C639.424 240.479 638.45 241.167 637.712 242.107C637.007 243.047 636.655 244.222 636.655 245.631C636.655 247.007 636.974 248.148 637.611 249.055C638.283 249.961 639.122 250.699 640.129 251.27C641.169 251.807 642.21 252.277 643.25 252.679C644.29 253.049 645.197 253.418 645.969 253.787C646.74 254.123 647.345 254.542 647.781 255.046C648.217 255.515 648.435 256.086 648.435 256.757C648.435 257.529 648.15 258.133 647.58 258.57C647.043 259.006 646.287 259.224 645.314 259.224C644.542 259.224 643.77 259.09 642.998 258.821C642.226 258.519 641.454 258.083 640.682 257.512C639.944 256.908 639.206 256.204 638.467 255.398ZM658.546 230.629C658.546 231.535 658.882 232.324 659.553 232.995C660.258 233.633 661.063 233.951 661.969 233.951C662.943 233.951 663.748 233.633 664.386 232.995C665.057 232.324 665.393 231.535 665.393 230.629C665.393 229.689 665.057 228.9 664.386 228.263C663.748 227.625 662.943 227.306 661.969 227.306C661.063 227.306 660.258 227.625 659.553 228.263C658.882 228.9 658.546 229.689 658.546 230.629ZM659.301 239.842V263H664.638V239.842H659.301ZM705.246 248.3C705.246 246.386 704.978 244.759 704.441 243.416C703.904 242.074 703.082 241.067 701.974 240.395C700.9 239.691 699.541 239.338 697.896 239.338C696.319 239.338 694.909 239.691 693.667 240.395C692.459 241.1 691.452 242.124 690.647 243.466C690.143 242.124 689.321 241.1 688.18 240.395C687.072 239.691 685.663 239.338 683.951 239.338C682.474 239.338 681.182 239.674 680.074 240.345C679 240.983 678.128 241.939 677.456 243.215V239.842H672.12V263H677.456V248.904C677.456 247.796 677.641 246.856 678.01 246.084C678.379 245.312 678.9 244.725 679.571 244.322C680.276 243.92 681.098 243.718 682.038 243.718C683.38 243.718 684.354 244.154 684.958 245.027C685.595 245.866 685.914 247.158 685.914 248.904V263H691.351V248.904C691.351 247.796 691.536 246.856 691.905 246.084C692.308 245.312 692.845 244.725 693.516 244.322C694.221 243.92 695.027 243.718 695.933 243.718C697.275 243.718 698.249 244.154 698.853 245.027C699.49 245.866 699.809 247.158 699.809 248.904V263H705.246V248.3ZM717.475 274.076V239.842H711.987V274.076H717.475ZM736.656 251.421C736.656 248.837 736.136 246.638 735.095 244.826C734.055 243.013 732.679 241.637 730.967 240.698C729.255 239.724 727.393 239.238 725.379 239.238C723.399 239.238 721.67 239.741 720.194 240.748C718.75 241.721 717.626 243.114 716.82 244.926C716.049 246.739 715.663 248.904 715.663 251.421C715.663 253.904 716.049 256.069 716.82 257.915C717.626 259.728 718.75 261.137 720.194 262.144C721.67 263.117 723.399 263.604 725.379 263.604C727.393 263.604 729.255 263.134 730.967 262.194C732.679 261.221 734.055 259.828 735.095 258.016C736.136 256.17 736.656 253.972 736.656 251.421ZM731.018 251.421C731.018 252.965 730.699 254.29 730.061 255.398C729.423 256.472 728.567 257.294 727.493 257.865C726.453 258.402 725.295 258.67 724.02 258.67C722.979 258.67 721.956 258.402 720.949 257.865C719.942 257.294 719.103 256.472 718.431 255.398C717.794 254.324 717.475 252.998 717.475 251.421C717.475 249.843 717.794 248.518 718.431 247.444C719.103 246.37 719.942 245.564 720.949 245.027C721.956 244.457 722.979 244.171 724.02 244.171C725.295 244.171 726.453 244.457 727.493 245.027C728.567 245.564 729.423 246.386 730.061 247.494C730.699 248.568 731.018 249.877 731.018 251.421ZM741.835 223.732V263H747.272V223.732H741.835ZM754.023 230.629C754.023 231.535 754.358 232.324 755.03 232.995C755.735 233.633 756.54 233.951 757.446 233.951C758.42 233.951 759.225 233.633 759.863 232.995C760.534 232.324 760.87 231.535 760.87 230.629C760.87 229.689 760.534 228.9 759.863 228.263C759.225 227.625 758.42 227.306 757.446 227.306C756.54 227.306 755.735 227.625 755.03 228.263C754.358 228.9 754.023 229.689 754.023 230.629ZM754.778 239.842V263H760.115V239.842H754.778ZM765.684 239.842V244.624H778.975V239.842H765.684ZM778.371 229.571L780.938 225.343C780.67 225.007 780.284 224.671 779.78 224.336C779.31 224 778.74 223.715 778.069 223.48C777.397 223.245 776.609 223.127 775.702 223.127C774.091 223.127 772.732 223.446 771.624 224.084C770.517 224.688 769.661 225.594 769.057 226.803C768.486 227.977 768.201 229.471 768.201 231.283V263H773.538V232.34C773.538 231.367 773.638 230.578 773.84 229.974C774.041 229.37 774.309 228.934 774.645 228.665C775.014 228.397 775.451 228.263 775.954 228.263C776.39 228.263 776.81 228.346 777.213 228.514C777.649 228.682 778.035 229.034 778.371 229.571ZM782.931 230.629C782.931 231.535 783.267 232.324 783.938 232.995C784.643 233.633 785.449 233.951 786.355 233.951C787.328 233.951 788.134 233.633 788.771 232.995C789.443 232.324 789.778 231.535 789.778 230.629C789.778 229.689 789.443 228.9 788.771 228.263C788.134 227.625 787.328 227.306 786.355 227.306C785.449 227.306 784.643 227.625 783.938 228.263C783.267 228.9 782.931 229.689 782.931 230.629ZM783.687 239.842V263H789.023V239.842H783.687ZM806.574 263.503C809.259 263.503 811.558 262.983 813.471 261.943C815.385 260.902 816.945 259.342 818.153 257.261L813.471 255.348C812.733 256.59 811.81 257.512 810.703 258.117C809.595 258.721 808.303 259.023 806.826 259.023C805.416 259.023 804.208 258.721 803.201 258.117C802.228 257.512 801.49 256.64 800.986 255.499C800.483 254.324 800.231 252.898 800.231 251.219C800.265 249.541 800.533 248.132 801.036 246.991C801.54 245.849 802.278 244.977 803.252 244.373C804.225 243.769 805.4 243.466 806.776 243.466C807.917 243.466 808.907 243.718 809.746 244.222C810.619 244.725 811.29 245.43 811.76 246.336C812.263 247.242 812.515 248.316 812.515 249.558C812.515 249.793 812.448 250.095 812.314 250.464C812.213 250.8 812.112 251.068 812.011 251.27L813.673 248.954H797.965V252.679H818.305C818.338 252.545 818.355 252.327 818.355 252.025C818.388 251.723 818.405 251.438 818.405 251.169C818.405 248.685 817.935 246.571 816.996 244.826C816.089 243.047 814.78 241.688 813.069 240.748C811.357 239.808 809.276 239.338 806.826 239.338C804.376 239.338 802.245 239.842 800.432 240.849C798.62 241.822 797.21 243.215 796.203 245.027C795.23 246.84 794.743 248.971 794.743 251.421C794.743 253.837 795.23 255.952 796.203 257.764C797.177 259.577 798.553 260.986 800.332 261.993C802.144 263 804.225 263.503 806.574 263.503ZM841.014 223.732V263H846.502V223.732H841.014ZM821.833 251.421C821.833 253.938 822.353 256.103 823.394 257.915C824.434 259.728 825.81 261.12 827.522 262.094C829.267 263.034 831.13 263.503 833.11 263.503C835.057 263.503 836.752 263.017 838.195 262.043C839.672 261.07 840.829 259.677 841.669 257.865C842.541 256.053 842.977 253.904 842.977 251.421C842.977 248.904 842.541 246.756 841.669 244.977C840.829 243.164 839.672 241.772 838.195 240.798C836.752 239.825 835.057 239.338 833.11 239.338C831.13 239.338 829.267 239.825 827.522 240.798C825.81 241.738 824.434 243.114 823.394 244.926C822.353 246.705 821.833 248.87 821.833 251.421ZM827.471 251.421C827.471 249.877 827.79 248.551 828.428 247.444C829.066 246.336 829.905 245.497 830.945 244.926C832.019 244.356 833.177 244.071 834.419 244.071C835.459 244.071 836.483 244.356 837.49 244.926C838.53 245.497 839.369 246.336 840.007 247.444C840.678 248.518 841.014 249.843 841.014 251.421C841.014 252.998 840.678 254.341 840.007 255.448C839.369 256.522 838.53 257.345 837.49 257.915C836.483 258.486 835.459 258.771 834.419 258.771C833.177 258.771 832.019 258.486 830.945 257.915C829.905 257.345 829.066 256.506 828.428 255.398C827.79 254.29 827.471 252.965 827.471 251.421ZM853.996 260.432C853.996 261.372 854.332 262.194 855.003 262.899C855.708 263.604 856.547 263.957 857.52 263.957C858.561 263.957 859.417 263.604 860.088 262.899C860.759 262.194 861.095 261.372 861.095 260.432C861.095 259.459 860.759 258.637 860.088 257.966C859.417 257.261 858.561 256.908 857.52 256.908C856.547 256.908 855.708 257.261 855.003 257.966C854.332 258.637 853.996 259.459 853.996 260.432Z" fill="#707070"/>
<defs>
<filter id="filter0_f_2_46" x="2.81933" y="23.2508" width="179.499" height="179.499" filterUnits="userSpaceOnUse" color-interpolation-filters="sRGB">
<feFlood flood-opacity="0" result="BackgroundImageFix"/>
<feBlend mode="normal" in="SourceGraphic" in2="BackgroundImageFix" result="shape"/>
<feGaussianBlur stdDeviation="18.7957" result="effect1_foregroundBlur_2_46"/>
</filter>
<filter id="filter1_f_2_46" x="46.9891" y="67.4205" width="92.0988" height="92.0987" filterUnits="userSpaceOnUse" color-interpolation-filters="sRGB">
<feFlood flood-opacity="0" result="BackgroundImageFix"/>
<feBlend mode="normal" in="SourceGraphic" in2="BackgroundImageFix" result="shape"/>
<feGaussianBlur stdDeviation="14.0967" result="effect1_foregroundBlur_2_46"/>
</filter>
<linearGradient id="paint0_linear_2_46" x1="175.269" y1="194.761" x2="14.5666" y2="20.4314" gradientUnits="userSpaceOnUse">
<stop stop-color="#AF1A1A"/>
<stop offset="1" stop-color="#FF0B0B"/>
</linearGradient>
<linearGradient id="paint1_linear_2_46" x1="175.269" y1="194.761" x2="14.5666" y2="20.4314" gradientUnits="userSpaceOnUse">
<stop stop-color="#AF1A1A"/>
<stop offset="1" stop-color="#FF0B0B"/>
</linearGradient>
</defs>
</svg>
